<?xml version="1.0" encoding="UTF-8"?>
<svg id="Layer_2" data-name="Layer 2" xmlns="http://www.w3.org/2000/svg" viewBox="0 0 77.56 77.57">
  <defs>
    <style>
      .cls-1 {
        fill: #fff;
      }

      .cls-2 {
        isolation: isolate;
      }
    </style>
  </defs>
  <g id="Layer_1-2" data-name="Layer 1">
    <g class="cls-2">
      <g>
        <path class="cls-1" d="M38.81,77.56c-11.85,0-23.7,0-35.55,0-1.9,0-3.23-1.21-3.26-2.95-.04-1.81,1.22-3.12,3.06-3.13,4.78-.02,9.55,0,14.33,0,1.83,0,3.66-.03,5.49.01.75.02.96-.26.95-.97-.03-2.57-.02-5.15,0-7.72,0-2.04,1.19-3.22,3.25-3.23,3.85,0,7.69-.01,11.54,0,1.97,0,3.2,1.22,3.21,3.19.01,2.61.02,5.21,0,7.82,0,.69.21.92.91.92,3.32-.03,6.64-.03,9.96,0,.76,0,.95-.27.94-.98-.02-4.68-.01-9.37-.01-14.05V8.25q0-1.26-1.2-.96c-13.05,3.26-26.1,6.53-39.16,9.76-.91.23-1.23.59-1.23,1.55.03,14.58.02,29.16.02,43.74,0,2.08-1.33,3.4-3.28,3.29-1.45-.08-2.69-1.3-2.79-2.75-.02-.31-.01-.62-.01-.93,0-15.45,0-30.9,0-46.34,0-2.37.66-3.23,2.95-3.8C24.33,7.95,39.75,4.09,55.17.22c1.22-.31,2.4-.4,3.44.47.76.64,1.08,1.47,1.08,2.46-.01,2.98.02,5.96-.02,8.93,0,.69.22,1.06.84,1.36,2.98,1.46,5.93,2.98,8.92,4.43,1.51.73,2.19,1.82,2.19,3.53-.03,16.26-.02,32.51-.02,48.76q0,1.3,1.33,1.31c.59,0,1.18-.02,1.77,0,1.61.07,2.83,1.36,2.85,2.98.02,1.68-1.18,3.02-2.82,3.09-1.02.04-2.05.01-3.07.01h-32.85M59.69,45.77c0,8.21,0,16.43-.01,24.64,0,.78.17,1.12,1.03,1.08,1.27-.07,2.54-.05,3.81,0,.76.03,1.01-.22,1.01-1-.02-15.59-.02-31.18,0-46.78,0-.66-.23-1.01-.81-1.28-1.35-.63-2.66-1.32-4-1.98-1.02-.51-1.03-.5-1.03.68,0,8.21,0,16.43,0,24.64M29.91,68.56c0,.75.01,1.49,0,2.23,0,.46.17.69.66.68,1.49-.01,2.98-.01,4.47,0,.52,0,.71-.22.71-.73-.02-1.46-.02-2.92,0-4.37,0-.51-.18-.74-.7-.73-1.46.02-2.92.02-4.37,0-.57,0-.78.23-.76.78.03.71,0,1.43,0,2.14"/>
        <path class="cls-1" d="M23.95,26.91c0,.77,0,1.55,0,2.32,0,.47-.2.67-.67.67-1.58,0-3.16,0-4.74,0-.47,0-.67-.2-.67-.67,0-1.58,0-3.16,0-4.74,0-.47.2-.68.67-.67,1.58,0,3.16,0,4.74,0,.47,0,.68.2.67.67-.01.81,0,1.61,0,2.42"/>
        <path class="cls-1" d="M29.78,26.78c0-.74.01-1.49,0-2.23-.01-.51.21-.73.72-.72,1.55.01,3.1.01,4.64,0,.51,0,.73.21.72.72-.01,1.55-.01,3.1,0,4.65,0,.51-.21.73-.72.72-1.55-.01-3.1-.01-4.64,0-.51,0-.73-.21-.72-.72.02-.8,0-1.61,0-2.42"/>
        <path class="cls-1" d="M44.73,23.83c.77,0,1.55.01,2.32,0,.51-.01.72.21.72.72-.01,1.55-.01,3.1,0,4.65,0,.51-.21.72-.72.72-1.55-.01-3.1-.01-4.65,0-.51,0-.72-.21-.72-.72.01-1.55.01-3.1,0-4.65,0-.51.21-.73.72-.72.77.02,1.55,0,2.32,0"/>
        <path class="cls-1" d="M20.86,41.81c-.77,0-1.55,0-2.32,0-.47,0-.68-.2-.67-.67,0-1.58,0-3.16,0-4.74,0-.47.2-.67.67-.67,1.58,0,3.16,0,4.74,0,.47,0,.68.2.67.67,0,1.58,0,3.16,0,4.74,0,.47-.2.68-.67.67-.8-.01-1.61,0-2.42,0"/>
        <path class="cls-1" d="M35.86,38.78c0,.77-.01,1.55,0,2.32.01.51-.21.72-.72.72-1.55-.01-3.1-.01-4.64,0-.51,0-.72-.21-.72-.72.01-1.55.01-3.1,0-4.64,0-.51.21-.72.72-.72,1.55.01,3.1.01,4.64,0,.51,0,.73.21.72.72-.02.77,0,1.55,0,2.32"/>
        <path class="cls-1" d="M44.69,41.81c-.77,0-1.55,0-2.32,0-.47,0-.67-.2-.67-.67,0-1.58,0-3.16,0-4.74,0-.47.2-.67.67-.67,1.58,0,3.16,0,4.74,0,.47,0,.67.2.67.67,0,1.58,0,3.16,0,4.74,0,.47-.2.68-.67.67-.8-.01-1.61,0-2.42,0"/>
        <path class="cls-1" d="M20.86,53.73c-.77,0-1.55,0-2.32,0-.47,0-.68-.2-.67-.67,0-1.58,0-3.16,0-4.74,0-.47.2-.67.67-.67,1.58,0,3.16,0,4.74,0,.47,0,.68.2.67.67,0,1.58,0,3.16,0,4.74,0,.47-.2.68-.67.67-.8-.01-1.61,0-2.42,0"/>
        <path class="cls-1" d="M32.83,47.65c.74,0,1.49.01,2.23,0,.52-.01.81.15.81.73-.02,1.55-.02,3.1,0,4.64,0,.52-.23.72-.73.71-1.55-.01-3.1-.01-4.64,0-.52,0-.71-.23-.71-.73.01-1.55.01-3.1,0-4.65,0-.52.23-.72.73-.71.77.01,1.55,0,2.32,0"/>
        <path class="cls-1" d="M47.77,50.74c0,.77,0,1.55,0,2.32,0,.47-.2.67-.67.67-1.58,0-3.16,0-4.74,0-.47,0-.67-.2-.67-.67,0-1.58,0-3.16,0-4.74,0-.47.2-.67.67-.67,1.58,0,3.16,0,4.74,0,.47,0,.68.2.67.67-.01.8,0,1.61,0,2.41"/>
      </g>
    </g>
  </g>
</svg>