<?xml version="1.0" encoding="UTF-8"?>
<svg id="Layer_2" data-name="Layer 2" xmlns="http://www.w3.org/2000/svg" viewBox="0 0 41.96 45.44">
  <defs>
    <style>
      .cls-1 {
        fill: #fff;
        stroke-width: 0px;
      }
    </style>
  </defs>
  <g id="Layer_1-2" data-name="Layer 1">
    <g>
      <path class="cls-1" d="M19.87,45.44c-1.08-.49-2-1.17-2.66-2.19-.26-.39-.46-.75-.53-1.22-.08-.57-.19-1.1-.8-1.45-.53-.3-.55-.91-.08-1.32.66-.57.76-1.07.06-1.67-.4-.34-.46-.82-.1-1.21.4-.44.3-.87.17-1.35-.47-1.71-1.47-3.1-2.64-4.38-2.03-2.2-3.65-4.63-4.36-7.59-1.87-7.77,3.77-15.15,11.76-15.17,6.44-.01,12.53,4.22,13,11.73.23,3.71-1.28,6.89-3.59,9.72-1.08,1.33-2.3,2.56-3.1,4.11-.28.55-.56,1.06-.04,1.69.37.46.06.9-.38,1.23-.6.46-.81.9,0,1.41.63.4.65,1,.07,1.45-.63.49-.66.84-.04,1.37.7.59.54,1.27-.33,1.63-.33.14-.67.22-.85.59-.67,1.37-1.83,2.15-3.23,2.63h-2.34ZM31.93,19.95c-.03-.34-.03-.9-.13-1.44-.87-4.82-4.24-7.99-9.43-8.74-7.54-1.1-12.97,5.16-11.85,12.23.47,2.95,2.07,5.28,4.02,7.42,1.44,1.58,2.69,3.28,3.16,5.4.18.79.6.9,1.26.8,1.19-.18,2.37-.46,3.56-.5,1.42-.05,2.26-.52,2.72-2,.59-1.89,2.12-3.24,3.36-4.73,1.98-2.39,3.29-5.05,3.32-8.44ZM18.93,38.59c.95-.13,1.98-.28,3-.42.61-.09,1.22-.16,1.82-.27.43-.08.59-.38.51-.79-.09-.45-.44-.28-.7-.24-1.57.21-3.14.44-4.71.65-.46.06-.72.28-.67.76.05.47.4.3.75.31ZM18.8,41.28c1.72-.21,3.32-.4,4.93-.6.31-.04.58-.19.55-.55-.03-.48-.41-.32-.67-.29-1.6.2-3.2.42-4.8.65-.23.03-.57.08-.51.45.06.33.34.34.5.34Z"/>
      <path class="cls-1" d="M0,20.89c.3-.59.79-.81,1.43-.81.84,0,1.68-.03,2.52-.03.54,0,.98.2,1.01.81.03.61-.39.85-.94.88-.87.06-1.74.09-2.61.15-.65.04-1.13-.21-1.41-.81v-.19Z"/>
      <path class="cls-1" d="M38.56,20.54c-.79.04-1.36-.03-1.42-.76-.06-.74.51-.89,1.09-.96.87-.11,1.74-.21,2.61-.28.57-.05,1.06.11,1.13.78.06.62-.37.88-.89.95-.9.13-1.8.2-2.51.28Z"/>
      <path class="cls-1" d="M9,7.31c-.01.71-.7,1.14-1.25.78-1-.67-1.84-1.54-2.62-2.44-.25-.29-.2-.68.06-.99.26-.31.62-.44.95-.21,1.01.7,1.88,1.58,2.71,2.48.1.11.11.29.14.38Z"/>
      <path class="cls-1" d="M34.23,9.43c-.71.02-1.17-.64-.84-1.22.57-.98,1.22-1.91,1.88-2.83.25-.34.65-.41,1.05-.17.35.21.52.57.36.92-.53,1.15-1.25,2.19-2.08,3.14-.09.11-.29.13-.37.16Z"/>
      <path class="cls-1" d="M23.03,2.39c0,.52.02,1.03,0,1.55-.03.5-.29.88-.82.91-.55.03-.88-.34-.88-.83,0-1.12.03-2.25.13-3.37.03-.41.4-.67.84-.64.45.02.72.31.75.74.03.55,0,1.09,0,1.64,0,0-.01,0-.02,0Z"/>
      <path class="cls-1" d="M17.09,14.64c.47,0,.75.23.99.48.33.34.65.45,1.13.27.47-.18.61-.47.67-.95.11-1.01.44-1.19,1.72-1.18.88,0,1.47.3,1.43,1.28-.02.54.26.8.71,1.03.5.25.78-.01,1.1-.31.94-.85,1.43.03,2.01.55.55.5.82,1.04.16,1.65-.39.36-.61.68-.36,1.26.23.53.52.76,1.09.74.64-.03.95.33.97.96,0,.36,0,.71,0,1.07,0,.68-.35,1.04-1.02,1.01-.58-.02-.95.13-1.21.72-.25.56,0,.84.32,1.17.48.49.42.98-.04,1.45-.18.18-.37.36-.55.56-.56.63-1.13.74-1.72.05-.35-.4-.71-.45-1.21-.26-.48.18-.63.48-.64.96-.02,1.11-.82,1.15-1.65,1.16-.85,0-1.5-.21-1.5-1.22,0-.51-.15-.83-.65-1.07-.53-.25-.83-.02-1.2.3-.9.8-1.38-.02-1.93-.53-.58-.53-.85-1.1-.16-1.73.4-.37.56-.71.31-1.27-.22-.5-.5-.67-1.03-.68-1.19-.02-1.03-.92-1.05-1.69-.02-.76.14-1.4,1.09-1.35.55.03.89-.14,1.15-.67.26-.53.07-.84-.27-1.19-.31-.31-.55-.71-.24-1.13.43-.6.91-1.18,1.58-1.43ZM21.26,23.58c1.6,0,2.84-1.23,2.83-2.81,0-1.59-1.24-2.8-2.85-2.79-1.6,0-2.86,1.24-2.85,2.81,0,1.58,1.25,2.79,2.87,2.8Z"/>
    </g>
  </g>
</svg>