<?xml version="1.0" encoding="UTF-8"?>
<svg id="Layer_2" data-name="Layer 2" xmlns="http://www.w3.org/2000/svg" viewBox="0 0 43.66 44.18">
  <defs>
    <style>
      .cls-1 {
        fill: #fff;
        stroke-width: 0px;
      }
    </style>
  </defs>
  <g id="Layer_1-2" data-name="Layer 1">
    <g>
      <path class="cls-1" d="M32.09,37.01c-2.14,0-4.27-.04-6.41.02-1.1.03-1.05-.64-1.04-1.37,0-.74-.13-1.5,1.04-1.49,3.96.03,7.92-.11,11.87.03,2.62.09,3.77-2.05,3.06-4.2-1.68-5.11-5.01-8.56-10.11-10.3-.5-.17-.95-.1-1.43.07-5.59,1.95-11.54-1.7-12.99-7.42C14.76,7.11,18.59,1.33,24.11.18c3.77-.79,7.98,1.08,10.25,4.53,2.35,3.58,2.26,7.66-.26,11.21-.2.28-.4.58-.65.82-.6.56-.44.87.25,1.2,2.95,1.39,5.32,3.49,7.16,6.17,1.48,2.15,2.73,4.44,2.79,7.14.07,3.19-2.39,5.69-5.58,5.75-2,.04-3.99,0-5.99,0,0,0,0,.01,0,.02ZM25.96,17.36c3.37.28,7.16-2.32,7.25-7.16.07-4.15-3.01-7.27-7.15-7.3-4.3-.03-7.34,2.98-7.38,7.3-.04,4.1,3.04,7.13,7.28,7.16Z"/>
      <path class="cls-1" d="M23.08,28.48c.06,2.93-1.12,4.89-2.91,6.54-.49.45-.71.89-.68,1.53.04.94.02,1.89,0,2.83-.03,2.48-1.94,4.62-4.26,4.79-2.39.17-4.51-1.57-4.96-4.05-.2-1.08-.15-2.17-.11-3.25.04-.91-.26-1.55-.94-2.18-2.52-2.32-3.3-5.75-2.09-8.72,1.34-3.28,4.55-5.5,7.89-5.45,4.28.06,8.06,3.98,8.05,7.96ZM20.24,28.79c0-3.2-2.22-5.42-5.38-5.44-3.19-.02-5.47,2.57-5.34,5.47.15,3.26,2.15,5.36,5.43,5.35,3.16,0,5.29-2.18,5.29-5.38ZM14.84,36.99c-.42,0-.84,0-1.26,0-.31,0-.56.13-.58.47-.04,1.01,0,2.03.27,3.01.13.46.55.7,1.02.8,1.41.31,2.31-.39,2.34-1.86.07-2.86.12-2.39-1.8-2.43Z"/>
      <path class="cls-1" d="M7.14,34.06c-.04,1.18-3.52,3.27-4.57,2.74-.92-.47-1.1-1.58-.3-2.26.89-.75,1.9-1.33,2.98-1.75,1.01-.39,1.92.26,1.89,1.27Z"/>
      <path class="cls-1" d="M13.51,16.87c0-.56-.03-1.12,0-1.67.05-.77.5-1.23,1.26-1.29.77-.06,1.3.36,1.42,1.1.2,1.17.24,2.36,0,3.53-.15.76-.69,1.26-1.51,1.13-.76-.12-1.24-.6-1.22-1.44.01-.45,0-.91,0-1.36.01,0,.02,0,.03,0Z"/>
      <path class="cls-1" d="M7.16,23.6c-.01.91-.87,1.58-1.74,1.27-1.16-.42-2.2-1.08-3.17-1.84-.52-.41-.65-.99-.32-1.6.35-.64.92-.91,1.59-.67,1.19.43,2.27,1.08,3.25,1.9.28.24.37.58.39.95Z"/>
      <path class="cls-1" d="M9.5,21.06c-.1-.03-.4-.03-.55-.18-1.09-1.07-1.83-2.36-2.18-3.84-.13-.55.27-.98.79-1.22.53-.24,1.07-.18,1.44.25.88,1,1.55,2.15,1.97,3.41.27.81-.43,1.57-1.47,1.58Z"/>
      <path class="cls-1" d="M2.89,27.42c.49,0,.98-.02,1.47,0,.82.04,1.33.51,1.4,1.29.06.76-.41,1.31-1.13,1.44-1.17.2-2.38.23-3.55,0-.74-.15-1.15-.67-1.08-1.45.07-.77.55-1.2,1.31-1.26.52-.04,1.05,0,1.57,0Z"/>
    </g>
  </g>
</svg>