<?xml version="1.0" encoding="UTF-8"?>
<svg id="Layer_2" data-name="Layer 2" xmlns="http://www.w3.org/2000/svg" viewBox="0 0 68.36 48.17">
  <defs>
    <style>
      .cls-1 {
        fill: #fff;
      }

      .cls-2 {
        isolation: isolate;
      }
    </style>
  </defs>
  <g id="Layer_1-2" data-name="Layer 1">
    <g class="cls-2">
      <path class="cls-1" d="M34.19,48.17c-10.42,0-20.84,0-31.27,0-.78,0-1.47-.18-2.05-.73-.59-.56-.88-1.23-.88-2.04C0,31.19,0,16.97,0,2.76,0,1.12,1.18,0,2.89,0c13.12,0,26.25,0,39.37,0,7.75,0,15.5,0,23.24,0,1.39,0,2.42.76,2.78,2.01.08.28.08.57.08.85,0,14.13,0,28.26,0,42.39,0,1.81-1.12,2.91-2.95,2.91-10.41,0-20.81,0-31.22,0M10.25,5.5s-.05.07-.07.1c.11.09.22.18.33.27.57.49,1.13.97,1.7,1.46,3.23,2.81,6.45,5.63,9.68,8.44,3.97,3.46,7.95,6.92,11.92,10.39.31.27.55.38.85,0,.13-.17.32-.28.49-.42,2.18-1.91,4.36-3.83,6.55-5.74,2.58-2.26,5.18-4.51,7.76-6.76,2.54-2.22,5.08-4.44,7.61-6.68.37-.33.79-.6,1.13-1.06H10.25ZM10.21,42.58s.02.07.03.1c.14,0,.28.02.42.02.72,0,1.44,0,2.16,0,14.92,0,29.84,0,44.77,0,.18,0,.46.09.52-.06.09-.21-.21-.31-.34-.43-2.35-2.07-4.71-4.13-7.07-6.19-3.05-2.66-6.11-5.32-9.16-7.99-.25-.22-.41-.21-.65,0-1.59,1.41-3.2,2.8-4.8,4.2-1.02.89-2.53.92-3.57.07-.64-.53-1.26-1.09-1.89-1.63-1.03-.89-2.07-1.78-3.09-2.68-.2-.17-.35-.19-.56,0-2.64,2.3-5.29,4.6-7.93,6.9-2.15,1.87-4.29,3.73-6.44,5.6-.8.7-1.59,1.4-2.39,2.1M5.47,24.07c0,4.74,0,9.49,0,14.23,0,.23,0,.46,0,.69,0,.08-.02.19.06.24.11.07.19-.04.26-.1.38-.33.76-.66,1.14-.99,1.92-1.67,3.84-3.34,5.75-5.01,1.89-1.64,3.77-3.28,5.66-4.92,1.48-1.29,2.96-2.59,4.45-3.88.22-.19.23-.3,0-.49-.67-.55-1.31-1.12-1.96-1.69-1.96-1.71-3.91-3.43-5.87-5.14-2.99-2.6-5.98-5.2-8.98-7.8-.13-.11-.24-.33-.41-.27-.18.07-.09.31-.09.47,0,4.89,0,9.77,0,14.66M62.89,8.83c-.24.19-.39.3-.53.42-1.95,1.71-3.9,3.43-5.86,5.14-3.58,3.13-7.16,6.26-10.75,9.37-.32.28-.27.4.01.64,1.73,1.5,3.44,3.01,5.15,4.51,2.63,2.3,5.26,4.59,7.89,6.89,1.26,1.1,2.51,2.2,3.76,3.29.07.06.15.17.25.13.12-.04.06-.17.07-.27,0-.07,0-.14,0-.22V8.83Z"/>
    </g>
  </g>
</svg>