<?xml version="1.0" encoding="UTF-8"?>
<svg id="Layer_2" data-name="Layer 2" xmlns="http://www.w3.org/2000/svg" viewBox="0 0 61.11 61.06">
  <defs>
    <style>
      .cls-1 {
        fill: #e90023;
      }

      .cls-1, .cls-2 {
        stroke-width: 0px;
      }

      .cls-2 {
        fill: #fff;
      }
    </style>
  </defs>
  <g id="Layer_1-2" data-name="Layer 1">
    <g>
      <polygon class="cls-2" points="20.11 10.84 14.19 22.11 17.15 50.81 52.17 30.83 42.43 19.46 20.11 10.84"/>
      <path class="cls-1" d="M61.11,30.39c-.08,17.09-13.54,30.69-30.6,30.67C13.51,61.05,0,47.53,0,30.53,0,13.5,13.54-.02,30.56,0c17.03.02,30.33,13.52,30.55,30.39ZM20.12,30.49c0,4.81,0,9.62,0,14.43,0,1.45.9,1.98,2.16,1.26,2.3-1.31,4.6-2.65,6.89-3.98,3.29-1.91,6.59-3.81,9.88-5.72,2.77-1.61,5.54-3.2,8.28-4.84,1.15-.69,1.09-1.67-.08-2.35-3.37-1.95-6.74-3.9-10.12-5.84-4.93-2.85-9.86-5.7-14.8-8.55-.19-.11-.39-.21-.59-.27-.77-.24-1.4.12-1.57.91-.06.29-.05.61-.05.91,0,4.68,0,9.36,0,14.04Z"/>
    </g>
  </g>
</svg>