<?xml version="1.0" encoding="UTF-8"?>
<svg id="Layer_2" data-name="Layer 2" xmlns="http://www.w3.org/2000/svg" viewBox="0 0 37.85 45.1">
  <defs>
    <style>
      .cls-1 {
        fill: #fff;
        stroke-width: 0px;
      }
    </style>
  </defs>
  <g id="Layer_1-2" data-name="Layer 1">
    <path class="cls-1" d="M9.74,23.09c0-1.73.02-3.44.29-5.16.21-1.28.39-2.57.67-3.84.29-1.31.76-2.58,1.21-3.84.46-1.31.95-2.6,1.46-3.89.67-1.74,1.38-3.47,2.24-5.13.49-.96,1.92-1.56,2.95-.97.25.14.5.14.74-.02.85-.57,2.44,0,2.94.99.86,1.71,1.57,3.48,2.27,5.25.47,1.2.94,2.4,1.37,3.6.51,1.43.99,2.88,1.33,4.38.57,2.5.82,5.02.94,7.57.05,1.02-.01,2.03-.03,3.04-.02,1.48.29,2.88,1.13,4.12.37.55.79,1.07,1.19,1.6.11.15.23.15.37.05.24-.16.49-.31.74-.46.46-.29,1.02-.2,1.36.23,1.1,1.38,2.19,2.77,3.29,4.15.46.58.92,1.15,1.4,1.72.39.46.34.99-.21,1.39-.77.57-1.57,1.09-2.35,1.64-1.85,1.3-3.71,2.59-5.56,3.89-.67.46-1.33.93-2.01,1.38-.71.48-1.19.37-1.7-.3-1.21-1.59-2.43-3.18-3.65-4.76-.32-.41-.64-.83-.95-1.25-.39-.52-.36-.9.17-1.31.31-.24.32-.42.1-.71-.52-.7-.96-1.46-1.34-2.23-.39-.77-.77-1.56-1.01-2.4-.03-.09,0-.24-.14-.25-.17,0-.11.16-.15.26-.25.62-.48,1.24-.76,1.84-.46.99-1.01,1.92-1.63,2.82-.14.21-.12.38.07.57.64.65.61.95.02,1.67-.67.83-1.29,1.71-1.95,2.56-.9,1.17-1.8,2.34-2.71,3.51-.25.32-.81.39-1.2.13-.76-.5-1.51-1.03-2.26-1.55-1.52-1.06-3.04-2.11-4.56-3.17-1.11-.78-2.24-1.54-3.32-2.36-.61-.46-.63-.85-.15-1.45.97-1.24,1.97-2.47,2.95-3.7.53-.67,1.06-1.34,1.6-2,.48-.58.82-.64,1.47-.28.1.06.21.11.3.18.65.5.62.38,1.06-.23.43-.58.96-1.09,1.27-1.76.43-.94.77-1.9.76-2.96,0-.86,0-1.71,0-2.57ZM19.85,20.81c0,1.52.01,3.05,0,4.57-.02,2.07.23,4.09.96,6.05.45,1.22,1,2.37,1.69,3.46.62.98.63.95,1.61.3,1.55-1.02,3.11-2.02,4.68-3.01.27-.17.28-.33.1-.56-.29-.38-.59-.75-.88-1.13-1.18-1.57-1.68-3.35-1.64-5.29.06-3.19-.03-6.37-.69-9.52-.28-1.32-.62-2.62-1.07-3.89-.36-1.02-.74-2.04-1.11-3.06-.65-1.81-1.35-3.6-2.15-5.36-.21-.46-.46-.9-.7-1.35-.11-.19-.29-.28-.52-.19-.21.07-.28.23-.28.44,0,.22-.02.44.02.65.26,1.57.37,3.16.56,4.74.15,1.26.32,2.53.43,3.8.04.45.2.64.61.73,1.26.28,2.06,1.75,2.05,2.77-.03,2.83-.01,5.66-.01,8.49,0,.13,0,.26-.02.39-.11.7-.8,1.07-1.37.73-.4-.23-.35-.64-.35-1.01,0-2.77,0-5.54,0-8.32,0-.17,0-.35-.02-.52-.08-.46-.49-.87-.94-.9-.41-.03-.67.23-.86.56-.11.19-.09.39-.09.6,0,1.94,0,3.89,0,5.83ZM18.02,20.82c0-1.41,0-2.82,0-4.22,0-.62,0-1.25,0-1.87,0-.42-.26-.66-.6-.84-.32-.16-.6-.03-.85.15-.32.22-.46.55-.46.94,0,.61,0,1.22,0,1.83,0,2.32,0,4.65,0,6.97,0,.29-.01.57-.3.77-.31.22-.61.24-.93.05-.35-.21-.52-.52-.52-.94,0-2.95,0-5.89,0-8.84,0-.47.15-.91.38-1.32.4-.72,1-1.15,1.79-1.34.3-.07.43-.23.45-.55.05-.97.22-1.93.33-2.89.2-1.87.48-3.73.63-5.61.02-.3.12-.6.08-.91-.05-.39-.38-.53-.69-.28-.11.09-.22.2-.28.33-.24.48-.47.96-.68,1.45-.81,1.89-1.56,3.81-2.26,5.74-.46,1.25-.94,2.49-1.31,3.77-.42,1.46-.74,2.94-.93,4.46-.2,1.58-.38,3.17-.37,4.76,0,1.18.02,2.35,0,3.53-.01,1.06-.34,2.05-.74,3.01-.41.98-1.09,1.77-1.73,2.59-.17.22-.29.41.03.6,1.78,1.05,3.47,2.24,5.22,3.33.46.28.56.28.82-.15.92-1.49,1.71-3.03,2.23-4.73.49-1.59.7-3.19.7-4.84,0-1.65,0-3.31,0-4.96ZM27.01,42.94c.05-.03.13-.07.2-.12,1.38-.96,2.76-1.92,4.14-2.87,1.27-.88,2.55-1.76,3.82-2.66.54-.38.53-.42.11-.94-.99-1.23-1.99-2.45-2.98-3.68-.36-.44-.38-.44-.88-.12-1.96,1.26-3.92,2.52-5.88,3.78-.71.45-1.4.92-2.1,1.38-.33.21-.34.42-.09.74.61.78,1.24,1.53,1.8,2.35.44.64.95,1.24,1.43,1.86.11.14.22.27.44.28ZM5.98,32.33c-.2.05-.32.22-.44.37-1.06,1.31-2.11,2.62-3.16,3.93-.17.21-.15.34.07.49.75.52,1.49,1.05,2.24,1.57,2,1.38,4,2.76,6,4.15.24.16.39.08.54-.13,1.12-1.47,2.25-2.94,3.39-4.4.2-.26.09-.41-.14-.56-.92-.6-1.84-1.21-2.76-1.8-1.8-1.16-3.6-2.32-5.4-3.49-.1-.06-.19-.14-.33-.13Z"/>
  </g>
</svg>