<?xml version="1.0" encoding="UTF-8"?>
<svg id="Layer_2" data-name="Layer 2" xmlns="http://www.w3.org/2000/svg" viewBox="0 0 37.36 38.3">
  <defs>
    <style>
      .cls-1 {
        fill: #fff;
        stroke-width: 0px;
      }
    </style>
  </defs>
  <g id="Layer_1-2" data-name="Layer 1">
    <g>
      <path class="cls-1" d="M28.73,38.3c1.78-1.2,2.01-2.03,1.07-3.99-.98-2.04-1.97-4.07-2.94-6.12-.38-.81-.87-1.48-1.57-2.05-1.62-1.33-3.26-2.61-5.11-3.59-.6-.31-.64-.63-.33-1.19,1.23-2.2,2.43-4.4,3.61-6.63.28-.54.6-.63,1.15-.5,5.25,1.31,9.66-1.41,12.3-5.25.71-1.03.59-1.98-.24-2.75-.93-.87-2.29-.99-3.26-.28-.39.29-.68.68-.97,1.05-2.12,2.69-4.94,3.46-8.05,2.1-1.07-.47-2.11-1.02-3.13-1.64-6.27-3.8-12.47-2.07-16.39,3.6-.72,1.04-.53,2.09.41,2.86,1.04.85,2.54.8,3.45-.15.35-.37.63-.8.97-1.18,1.67-1.88,3.71-2.69,6.21-2.18.39.08.66.18.38.66-1.83,3.15-3.46,6.42-5.12,9.66-.4.78-.93,1.48-1.53,2.13-1.64,1.78-3.31,2.08-5.47,1.01-1.39-.69-2.42-.58-3.32.36-1.3,1.36-1.04,3.21.57,4.17,3.84,2.28,7.92,1.82,11.18-1.24.27-.25.53-.51.78-.77,1.21-1.24,1.2-1.22,2.82-.51,2.16.95,4.07,2.28,5.87,3.8.29.25.45.57.61.91.97,2.01,1.95,4.02,2.9,6.04.34.72.77,1.31,1.48,1.68h1.69Z"/>
      <path class="cls-1" d="M25.16,0c-2.09,0-3.83,1.75-3.82,3.83.01,2.11,1.81,3.92,3.87,3.9,2.03-.03,3.84-1.84,3.83-3.87C29.05,1.73,27.29,0,25.16,0Z"/>
    </g>
  </g>
</svg>