<?xml version="1.0" encoding="UTF-8"?>
<svg id="Layer_2" data-name="Layer 2" xmlns="http://www.w3.org/2000/svg" viewBox="0 0 33.48 39.03">
  <defs>
    <style>
      .cls-1 {
        fill: #fff;
        stroke-width: 0px;
      }
    </style>
  </defs>
  <g id="Layer_1-2" data-name="Layer 1">
    <g>
      <path class="cls-1" d="M17,0c2.37,2.07,5.14,3.47,8.02,4.68,2.39,1,4.88,1.69,7.47,1.98.52.06.84.27.88.85.53,7.94-.72,15.46-5.16,22.23-2.69,4.1-6.4,7.04-10.81,9.14-.55.26-.98.16-1.48-.08-6.99-3.35-11.62-8.77-14.07-16.09C.22,17.86-.17,12.86.06,7.79c.03-.64.22-1.04.93-1.14,5.83-.76,10.97-3.12,15.62-6.66h.39ZM30.16,12.57c-.03-.7-.07-1.65-.13-2.59-.04-.55-.32-.84-.93-.92-4.32-.54-8.19-2.22-11.63-4.86-.54-.41-.93-.39-1.46.02-3.41,2.64-7.26,4.28-11.54,4.83-.69.09-.92.36-1.01,1.04-.36,2.96-.12,5.89.46,8.78,1.46,7.18,5.16,12.72,11.95,15.93.62.3,1.15.31,1.76,0,3.34-1.61,6.15-3.85,8.25-6.93,3.1-4.54,4.22-9.65,4.28-15.31Z"/>
      <path class="cls-1" d="M29.05,13.25c-.02,4.91-1.1,9.54-3.82,13.7-1.89,2.89-4.44,5.04-7.48,6.64-.77.4-1.37.34-2.1-.04-5.97-3.13-9.28-8.19-10.67-14.64-.55-2.54-.67-5.12-.6-7.71.02-.79.3-1.13,1.13-1.26,3.83-.57,7.28-2.1,10.41-4.35.6-.43,1.01-.46,1.63-.01,3.19,2.28,6.7,3.82,10.61,4.39.64.09.93.38.91,1.02-.02.75,0,1.51,0,2.26ZM11.98,16.51c-1.2,0-2,.47-2.39,1.41-.4.96-.28,1.89.44,2.64,1.18,1.22,2.38,2.43,3.64,3.57,1.1,1.01,2.44.97,3.52-.07,2.12-2.04,4.23-4.09,6.31-6.17,1.13-1.12,1.18-2.57.2-3.58-.98-1.02-2.55-.99-3.67.09-1.23,1.18-2.44,2.37-3.66,3.55-1.03,1-.84,1.12-2.04-.05-.7-.68-1.34-1.48-2.34-1.39Z"/>
      <path class="cls-1" d="M23.32,16.01c-.03.51-.29.89-.62,1.21-2.06,2.01-4.1,4.03-6.18,6.02-.78.75-1.44.76-2.24.02-1.15-1.06-2.27-2.17-3.37-3.29-.63-.64-.6-1.55-.02-2.1.58-.55,1.3-.52,2.02.12.51.46.99.95,1.48,1.43q.99.97,2.01-.04c1.47-1.44,2.95-2.87,4.43-4.3.5-.48,1.08-.62,1.71-.32.52.24.75.71.78,1.24Z"/>
    </g>
  </g>
</svg>