<?xml version="1.0" encoding="UTF-8"?>
<svg id="b" data-name="Layer 2" xmlns="http://www.w3.org/2000/svg" viewBox="0 0 58.09 58.12">
  <g id="c" data-name="Layer 1">
    <path d="m58.09,29.23c-.02,15.71-12.71,28.97-29.14,28.89C12.32,58.03-.33,44.58,0,28.45.34,12.74,12.83-.03,29.11,0c16.74.03,29.13,13.61,28.98,29.23m-26.64,12.39c0-2.7.03-5.41-.02-8.11-.01-.78.26-.99.99-.97,1.3.04,2.61-.01,3.91.02.68.01.97-.28,1.06-.93.25-1.73.5-3.46.83-5.18.14-.76-.12-.96-.83-.95-1.62.02-3.25-.02-4.87.02-.79.02-1.15-.17-1.1-1.06.08-1.43.02-2.86.02-4.29,0-2.1,1.14-3.37,3.23-3.66,1.04-.14,2.09-.16,3.14-.13.66.02.91-.26.89-.91-.03-1.34-.03-2.67,0-4.01.01-.69-.25-.96-.95-.97-1.37-.02-2.73-.07-4.09-.19-6.05-.53-9.3,3.08-9.85,8.23-.22,2.03-.07,4.07-.07,6.1,0,.68-.23.9-.88.89-1.62-.02-3.24.01-4.87-.01-.7-.01-.96.26-.95.96.03,1.72.04,3.44,0,5.15-.01.7.24.97.94.95,1.43-.03,2.86,0,4.3,0q1.44,0,1.44,1.42c0,5.22.02,10.43-.01,15.65,0,.83.26,1.13,1.1,1.11,1.84-.05,3.69-.06,5.53,0,.91.03,1.13-.35,1.12-1.18-.04-2.64-.01-5.28-.02-7.92" style="fill: none;"/>
  </g>
</svg>