<?xml version="1.0" encoding="UTF-8"?>
<svg id="b" data-name="Layer 2" xmlns="http://www.w3.org/2000/svg" viewBox="0 0 58.12 58.12">
  <g id="c" data-name="Layer 1">
    <g>
      <path d="m0,28.92C.2,12.37,13.36-.12,29.13,0c17.36.14,29.54,14.23,28.97,30.02-.58,16.19-13.64,28.41-29.55,28.09C11.82,57.78-.04,44.32,0,28.92M29.13,10.81c-2.8,0-5.6.11-8.39-.02-4.75-.22-10.02,3.68-10.05,10.02-.02,5.47-.02,10.94,0,16.41,0,1.44.2,2.86.83,4.18,1.9,4,5.13,5.96,9.5,6.01,4.99.06,9.98.01,14.98.02.92,0,1.84-.04,2.76-.14,4.69-.53,8.6-4.7,8.65-9.43.06-5.79.06-11.57,0-17.36-.05-5.38-4.4-9.63-9.78-9.66-2.83-.02-5.66,0-8.49,0" style="fill: none;"/>
      <path d="m44.46,28.97c0,2.8,0,5.6,0,8.4-.02,3.93-3.09,7.05-7.01,7.07-5.5.02-11.01.02-16.51,0-4.24-.02-7.26-3.08-7.27-7.31-.01-5.38-.01-10.75,0-16.13,0-4.22,3.05-7.29,7.28-7.31,5.44-.02,10.88-.03,16.32,0,4.18.02,7.19,3.09,7.19,7.27,0,2.67,0,5.34,0,8.02m-25.23,0c-.01,5.61,4.33,10.01,9.92,10.05,5.3.04,9.88-4.55,9.9-9.94.02-5.35-4.51-9.93-9.88-9.97-5.39-.04-9.93,4.46-9.94,9.85m19.78-7.84c1.16-.02,1.98-.85,1.94-1.99-.03-1.1-.96-1.97-2.05-1.93-1.06.04-1.91.93-1.89,1.98.02,1.17.82,1.95,2,1.93" style="fill: none;"/>
      <path d="m29.05,35.82c-3.66,0-6.75-3.09-6.77-6.76-.03-3.65,3.15-6.78,6.87-6.77,3.64.01,6.73,3.16,6.7,6.82-.03,3.68-3.1,6.72-6.8,6.71" style="fill: none;"/>
    </g>
  </g>
</svg>