<svg width="59" height="59" viewBox="0 0 59 59" fill="none" xmlns="http://www.w3.org/2000/svg">
<g clip-path="url(#clip0_242_236)">
<path d="M30.5124 57.9997H27.4516C27.3676 57.9877 27.2835 57.9637 27.1995 57.9637C26.2032 57.9397 25.207 57.7957 24.2227 57.6276C20.4416 56.9914 16.9127 55.6591 13.6478 53.6425C11.1991 52.1301 9.02649 50.2816 7.14197 48.109C4.89735 45.5403 3.16887 42.6715 1.93253 39.4906C1.0803 37.294 0.504139 35.0254 0.204056 32.6847C0.120033 31.9645 0.0840232 31.2443 0 30.5361C0 29.5159 0 28.4956 0 27.4753C0.0600166 26.8871 0.0960265 26.287 0.168046 25.6988C0.588162 22.1218 1.62045 18.7489 3.28891 15.556C4.54926 13.1554 6.10969 10.9587 7.9822 8.99021C9.80671 7.06968 11.8593 5.42522 14.1279 4.08085C16.3245 2.77249 18.6652 1.76421 21.1258 1.08002C23.2624 0.479858 25.435 0.107756 27.6436 0.0237327C29.3001 -0.0482872 30.9565 0.0237327 32.613 0.215786C36.106 0.659908 39.4069 1.7042 42.5157 3.33665C44.5203 4.39294 46.3808 5.66529 48.0733 7.1537C51.0141 9.73441 53.3427 12.7712 55.0592 16.2882C56.3555 18.953 57.2318 21.7497 57.6639 24.6905C58.096 27.5713 58.084 30.4401 57.6639 33.3209C57.2078 36.3938 56.2595 39.2986 54.8671 42.0713C53.6188 44.556 52.0464 46.8246 50.1378 48.8412C47.7852 51.3379 45.0844 53.3664 42.0116 54.9029C39.0468 56.3913 35.9259 57.3515 32.637 57.7717C31.9288 57.8677 31.2086 57.8917 30.5004 57.9877L30.5124 57.9997ZM32.0368 25.3987C32.0368 25.2787 32.0368 25.1827 32.0368 25.0866C32.0368 24.3424 32.0368 23.5982 32.0368 22.854C32.0368 22.602 31.9408 22.4939 31.6887 22.4939C29.6362 22.4939 27.5956 22.4939 25.543 22.4939C25.267 22.4939 25.1829 22.614 25.195 22.878C25.219 23.3462 25.243 23.8143 25.243 24.2944C25.231 28.6756 25.279 33.0448 25.207 37.4261C25.1709 39.2386 25.207 41.051 25.207 42.8635C25.207 43.2597 25.219 43.2717 25.6271 43.2717C27.6316 43.2717 29.6242 43.2717 31.6287 43.2717C31.6887 43.2717 31.7368 43.2717 31.7968 43.2717C31.9528 43.2717 32.0488 43.1996 32.0488 43.0316C32.0488 42.9236 32.0488 42.8035 32.0488 42.6955C32.0488 39.0225 32.0488 35.3495 32.0488 31.6885C32.0488 31.1363 32.0488 30.5722 32.2529 30.044C32.8891 28.4836 34.0054 27.4993 35.7459 27.4153C36.9702 27.3553 38.0145 27.7754 38.6747 28.8797C39.2388 29.8039 39.4069 30.8362 39.4069 31.8925C39.4069 35.5295 39.4069 39.1785 39.4069 42.8155C39.4069 43.2837 39.4069 43.2837 39.851 43.2837C41.8315 43.2837 43.8121 43.2837 45.7926 43.2837C46.2248 43.2837 46.2368 43.2717 46.2368 42.8395C46.2368 38.8905 46.2368 34.9294 46.2368 30.9803C46.2368 29.2878 45.9487 27.6313 45.1925 26.0949C44.4483 24.5585 43.308 23.4062 41.7355 22.698C40.8113 22.2899 39.851 22.0978 38.8547 22.0378C37.5464 21.9658 36.274 22.1338 35.0737 22.698C33.8974 23.2501 33.0211 24.1144 32.2889 25.1587C32.2289 25.2427 32.1929 25.3627 32.0248 25.4107L32.0368 25.3987ZM21.2819 32.9128C21.2819 29.5879 21.2819 26.251 21.2819 22.9261C21.2819 22.5179 21.2579 22.4939 20.8498 22.4939C18.8572 22.4939 16.8647 22.4939 14.8841 22.4939C14.476 22.4939 14.452 22.5179 14.452 22.9261C14.452 29.5639 14.452 36.2017 14.452 42.8515C14.452 43.2477 14.476 43.2597 14.8721 43.2597C16.8406 43.2597 18.8092 43.2597 20.7897 43.2597C21.1258 43.2597 21.2939 43.0836 21.2939 42.7315C21.2939 39.4546 21.2939 36.1897 21.2939 32.9128H21.2819ZM17.8129 12.4712C17.3928 12.4592 16.8406 12.5192 16.3125 12.7232C15.0281 13.2154 14.2479 14.1276 14.0679 15.496C13.8878 16.8404 14.2959 17.9927 15.4002 18.8209C16.4926 19.6371 17.7409 19.7212 19.0132 19.4211C21.75 18.7729 22.3862 15.7841 21.0418 13.9116C20.2856 12.8673 19.2053 12.4472 17.8009 12.4712H17.8129Z" fill="white"/>
</g>
<defs>
<clipPath id="clip0_242_236">
<rect width="58" height="58" fill="white"/>
</clipPath>
</defs>
</svg>
