<?xml version="1.0" encoding="UTF-8"?>
<svg id="b" data-name="Layer 2" xmlns="http://www.w3.org/2000/svg" viewBox="0 0 58.09 58.12">
  <g id="c" data-name="Layer 1">
    <path d="m0,29.2C-.12,13.53,12.3,0,29.02,0c16.33,0,28.8,12.85,29.07,28.59.27,16.04-12.35,29.47-28.98,29.53C12.68,58.18,0,44.91,0,29.2m31.03-4.38c0,3.98,0,7.95,0,11.93,0,1.36-.41,2.54-1.29,3.59-1.68,1.98-4.61,2.55-6.94,1.29-2.33-1.26-3.39-3.94-2.58-6.52.78-2.48,3.23-4.1,5.81-3.79.69.08.93-.1.92-.78-.02-1.43-.04-2.86.01-4.29.03-.85-.32-1.09-1.12-1.11-2.6-.07-4.95.63-7.09,2.11-5.88,4.06-6.83,12.75-1.4,17.87,3.72,3.51,8.22,4.32,12.91,2.22,4.6-2.06,6.92-5.83,6.97-10.91.04-3.82,0-7.63.01-11.45,0-.4-.2-.93.18-1.16.41-.25.73.25,1.05.47,1.99,1.39,4.18,2.11,6.61,2.15.52,0,.95-.05.95-.74-.02-1.53,0-3.05,0-4.58,0-.45-.16-.72-.66-.73-4.48-.12-7.85-4.26-8.11-8.21-.04-.59-.33-.75-.86-.74-1.4.01-2.8.05-4.2-.01-.92-.04-1.2.27-1.19,1.19.04,4.07.02,8.14.02,12.21" style="fill: none;"/>
  </g>
</svg>