<?xml version="1.0" encoding="UTF-8"?>
<svg id="b" data-name="Layer 2" xmlns="http://www.w3.org/2000/svg" viewBox="0 0 58.09 58.12">
  <g id="c" data-name="Layer 1">
    <g>
      <path d="m58.09,28.96c.11,15.61-12.29,29.17-29.05,29.16C12.72,58.11.25,45.25,0,29.5-.24,13.41,12.46.04,29.02,0c16.44-.04,29.08,13.27,29.06,28.96m-28.95-12.41c-4.23.03-8.45.08-12.65.62-2.8.36-4.29,1.68-4.65,4.46-.62,4.84-.59,9.71-.05,14.55.34,3.01,1.62,4.24,4.67,4.64,6.92.91,13.88.84,20.83.44,1.55-.09,3.11-.15,4.64-.45,2.91-.56,4.06-1.82,4.43-4.79.57-4.66.54-9.32.01-13.98-.34-2.98-1.69-4.46-4.68-4.87-4.16-.58-8.36-.6-12.56-.63" style="fill: none;"/>
      <path d="m24.56,29.06c0-1.52.01-3.05,0-4.57,0-.73.22-.94.9-.55,2.64,1.52,5.28,3.03,7.93,4.54.59.33.66.64.03,1-2.71,1.58-5.42,3.17-8.13,4.75-.59.34-.73,0-.73-.51,0-1.55,0-3.11,0-4.66h0Z" style="fill: none;"/>
    </g>
  </g>
</svg>