<?xml version="1.0" encoding="UTF-8"?>
<svg id="Layer_2" xmlns="http://www.w3.org/2000/svg" xmlns:xlink="http://www.w3.org/1999/xlink" viewBox="0 0 1110.55 415.63">
  <defs>
    <style>
      .cls-1 {
        font-family: Poppins-Medium, Poppins;
        font-size: 20px;
        font-weight: 500;
      }

      .cls-2 {
        filter: url(#drop-shadow-1);
      }

      .cls-3 {
        fill: #231f20;
      }

      .cls-4 {
        fill: none;
        stroke: #231f20;
        stroke-miterlimit: 10;
        stroke-width: 2px;
      }

      .cls-5 {
        fill: #b90020;
      }
    </style>
    <filter id="drop-shadow-1" filterUnits="userSpaceOnUse">
      <feOffset dx="6.38" dy="6.38"/>
      <feGaussianBlur result="blur" stdDeviation="9.57"/>
      <feFlood flood-color="#000" flood-opacity=".34"/>
      <feComposite in2="blur" operator="in"/>
      <feComposite in="SourceGraphic"/>
    </filter>
  </defs>
  <g id="Layer_1-2" data-name="Layer_1">
    <g>
      <g class="cls-2">
        <path class="cls-5" d="M344.03,146.2c-3.56.19-2.44,1.87-1.12,4.12,1.31,2.25,5.25,4.69,9.19,3.56,3.94-1.12,4.5-4.31,10.12-4.31s8.81,1.5,8.81,1.5c-7.12-.19-8.81-1.68-13.69,3.1-4.87,4.78-10.12,4.97-12,5.53,9.75,4.12,17.44,8.25,17.81,14.44.37,6.19-4.69,9.19-3.94,11.25.75,2.06,2.62-.75,3.37,3.94.75,4.69,1.31,12,2.06,17.62.75,5.62.19,10.69,3.37,9.75,3.19-.94,4.5-6.56,6.19-3,1.69,3.56,3.75,4.69,6.37,4.31,2.62-.37,1.31,1.31,6.75,1.12,5.44-.19,3.37-1.69,7.5-2.81s.94.37,5.44-.94c4.5-1.31,4.5-8.44,4.5-8.44,0,0,5.62,4.12,4.13,10.12-1.5,6-1.12,10.31-.75,13.87s1.69-2.81,6.56-3.56c4.87-.75,7.5,2.25,10.5-.19,3-2.44,4.12-.94,7.31-2.06,3.19-1.12,2.63-4.31,5.81-4.69,3.19-.38,2.06,2.81,5.44,2.63,3.37-.19.75-.19,2.44,2.62,1.69,2.81,3.75,7.02,6.37,6.32,2.62-.7-3-3.89-.56-5.57,2.44-1.69,1.87.56,5.25,1.87,3.37,1.31,4.87.75,7.5.75s1.31,1.55,3.75,3.03c2.44,1.47-.75,2.22-.56,5.04.19,2.81,3,4.69,1.5,8.25,13.31-.94,13.12-5.62,20.06-7.12,6.94-1.5,7.12-2.62,11.25-7.12,4.12-4.5,5.44-6.75,5.06-10.5-.38-3.75-.75-6.19,1.69-4.87,2.44,1.31,4.12,2.44,5.06-1.12.94-3.56,2.81-3.37-.19-6-3-2.63-3.19-4.87-.94-4.31,2.25.56,5.25,2.81,5.25-.56s3.19-4.87.19-5.25c-3-.37-5.81.19-4.5-1.87,1.31-2.06,3.94-1.69,2.06-3.56-1.87-1.87-4.12,0-4.12-2.62s.75-3.94,1.87-4.31c1.12-.37,7.87-.56,7.31-3.94-.56-3.37.75-2.11,2.3-5.91,1.55-3.8-1.12-7.59.7-8.01,1.83-.42,3.52,2.39,3.52,5.48,7.31-4.08,7.73-8.02,5.77-12.37-1.97-4.36,1.27-2.95,3.37-6.75,2.11-3.8.28-4.78,2.11-8.72,1.83-3.94,4.92-6.47,5.06-12.8.14-6.33.7-6.33,3.23-8.3,2.53-1.97,4.5,3.37,6.19,0,1.69-3.37.28-6.75,2.11-5.48,1.83,1.27-.03,4.22,3.36,4.36,3.39.14,3.39.84,6.48-.28,3.09-1.12,4.64-1.12,7.31-.56,2.67.56,4.64.98,4.5-1.83-.14-2.81-7.17-3.94-9.42-9.14-2.25-5.2-5.06-5.34-8.01-6.05-2.95-.7-3.52-4.64-5.91-6.89-2.39-2.25-5.2-1.83-5.06-5.76.14-3.94.84-5.06,3.38-4.64,2.53.42,3.8-4.78,1.41-8.16-2.39-3.38-8.44-5.34-9-9.84-.56-4.5-8.72-4.92-5.48-7.59,3.23-2.67,5.76-5.06,2.53-7.03s-7.87-3.52-4.64-4.64c3.23-1.13,7.59-.42,9.98-1.27,2.39-.84,2.25-2.81-2.11-4.64-4.36-1.83-5.05-3.89-4.92-5.11,0,0,.37-2.25,0-5.25-.37-3-3-4.12-5.62-1.87-2.63,2.25-4.5,1.87-9,.75-4.5-1.12-1.87,5.56-9,2.22-7.12-3.34-9.37-3.34-10.5-1.84-1.12,1.5-3.75,3-3.75,6s-3.38,6-5.25,14.25c-1.87,8.25-2.25,16.12-9,25.12-6.75,9-9.75,14.62-10.87,18.75-1.13,4.12,0,7.12,0,7.12,0,0-7.87-1.87-13.87,3.75-6,5.62-13.12,7.5-16.87,3.75-3.75-3.75-9-9.75-17.25-5.25-8.25,4.5-13.87,4.28-21,7.2-7.12,2.92-11.62-2.92-15,0-3.38,2.92-5.25-2.79-5.25.84,0,4.33.75,9.2-3,6.58-3.75-2.62-1.87,0-8.25-4.5-6.37-4.5,3,.37-7.5-7.5-10.5-7.87-14.25-2.62-14.25-12s-6-1.87-6-1.87c0,0-1.87,8.25-5.25,12.75-3.37,4.5.75,7.12,0,11.62-.75,4.5-6.37,1.87-6.37,6.37s2.62,9.19,6.75,13.12c4.12,3.94,5.44,5.62,1.88,5.81Z"/>
        <path class="cls-5" d="M504.14,244.06c2.52-.12,4.31-1.97,4.69-6,.38-4.03,1.41-4.22,1.31-7.22-.09-3-2.72-4.87-4.5-1.41-1.78,3.47-.94,5.34-1.03,7.69-.09,2.34-2.44,7.03-.47,6.94Z"/>
        <path class="cls-5" d="M513.98,229.81c-1.75-.59-2.91-.56-2.25,2.16.66,2.72,1.23,4.87,1.04,5.44-.19.56,6.01-5.99,1.21-7.59Z"/>
        <path class="cls-5" d="M353.68,169.44c1.87-1.13,1.59-2.16,1.59-2.16-4.31-1.97-2.72-3.94-8.06-3.56-5.34.37-6.66-.09-7.12.56-.47.66,0,2.34,3.84,3.47,3.84,1.13,7.87,2.81,9.75,1.69Z"/>
        <path class="cls-5" d="M352.18,180.41c2.91-1.03,4.97-3.94,6.28-5.81,1.31-1.87-.84-3.28-.84-3.28-2.81.19-4.97-.19-6.75,1.59-1.78,1.78-2.91,2.63-2.53,4.59.38,1.97.94,3.94,3.84,2.91Z"/>
        <path class="cls-5" d="M543.13,57.8c.19,2.44.28,2.91,2.25,4.22v-3.19c0-1.5.09-2.44,0-3.66-.09-1.22-2.44.19-2.25,2.62Z"/>
        <path class="cls-5" d="M546.32,43.27c1.87-1.12,5.44-1.03,5.44-1.78s-1.87-1.69-1.87-1.69c-3.19-1.41-4.03-1.22-6.28-2.91-2.25-1.69-3.66,1.22-1.69,3.75,1.97,2.53,2.53,3.75,4.41,2.62Z"/>
        <path class="cls-5" d="M578.47,195.69c1.12,3.37-1.69,5.62-5.62,13.78-3.94,8.16-5.91,19.69-2.25,21.94,3.66,2.25,9.84,2.25,14.06,0,4.22-2.25-1.97,4.78,1.41,9.28,3.37,4.5,3.94,0,4.22,5.91.28,5.91.84,6.75-.84,9.84-1.69,3.09-1.97,1.12-3.09,8.44-1.12,7.31-2.25,11.53-.28,13.5s2.53,6.47,7.31,3.94c4.78-2.53,4.78-3.09,7.31-1.12,2.53,1.97,2.53-.28,6.19-.56,3.66-.28,6.75,2.44,6.75,2.44,0,0,.56-5.53-3.66-10.88-4.22-5.34.28-5.34.56-10.97.28-5.62-1.69-7.59-1.69-14.62s1.12,1.12,3.38-7.59c2.25-8.72,1.41-4.78-1.13-13.5-2.53-8.72-1.69-5.34,2.25-9.56,3.94-4.22,1.97-7.03,6.47-5.06,4.5,1.97,9.84,0,6.19,8.44-3.66,8.44-9,11.44-4.22,14.16,4.78,2.71,4.22.16,7.31,3.97,3.09,3.81,2.53,5.21,5.06,5.21s1.12-3.66,2.53,0c1.41,3.66.56,7.03-.84,8.16-1.41,1.12-2.53,4.5-1.13,6.75,1.41,2.25-1.69,5.34,2.81,5.62,4.5.28,1.97-1.97,6.47,0,4.5,1.97,9.28,5.91,9,1.69-.28-4.22-6.47-7.03,0-9,6.47-1.97,7.59-3.37,9.84-5.34,2.25-1.97-.84,1.41,6.75.28,7.59-1.13,7.87.28,10.97-3.09,3.09-3.37,1.69-7.03-1.69-5.91-3.37,1.12-10.97,3.37-13.5-1.41-2.53-4.78,0-5.15-4.78-6.93-4.78-1.79-8.16-1.93-3.66-3.97,4.5-2.04,6.47-5.41,3.37-7.66-3.09-2.25-.56-1.69-2.53-6.47-1.97-4.78.28.28-3.37-5.06-3.66-5.34,1.72-6.75-5.61-9.56-7.33-2.81-8.74-.56-11.83-5.06-3.09-4.5-1.97-8.44.56-5.91,2.53,2.53,6.19,5.06,9,0,2.81-5.06,0-3.94,6.19-5.34,6.19-1.41,7.31-1.97,9.56-5.91,2.25-3.94,5.06-3.38,8.44-9,3.37-5.62,1.69-6.19,8.16-4.22,6.47,1.97,9,5.62,10.97.28,1.97-5.34,4.22-7.31-3.09-8.44-7.31-1.13-7.59-5.06-12.94-1.97-5.34,3.09-6.75,2.25-10.69,3.66-3.94,1.41-3.37,5.06-8.44,6.19-5.06,1.12-7.03.84-10.69-1.12s-5.62-6.47-8.72,0c-3.09,6.47-5.62,10.41-7.31,11.25-1.69.84-3.09,3.66-9.28-2.53s-13.78-8.16-14.62-16.87c-.84-8.72-.56-21.94,8.16-23.34,8.72-1.41,14.06,4.5,18.56,2.81,4.5-1.69,7.59-6.75,13.5-3.94,5.91,2.81,6.47,1.13,14.9,1.41,8.44.28,5.06-.84,12.94.28,7.87,1.12,3.94-1.97,11.25,1.69,7.31,3.66,22.5,1.41,30.65-4.78,8.16-6.19,21.92-24.45,14.9-26.43,0,0-9.28-4.5-11.25,0-1.97,4.5-1.12,7.03-6.19,8.16-5.06,1.12-5.34,5.06-5.91,6.19-.56,1.13-2.53,2.81-6.47,3.37-3.94.56-5.06,1.41-8.16,0-3.09-1.41-13.5-2.96-16.87.77-3.37,3.73-7.87-1.61-9.84-4.14-1.97-2.53-3.94-.84-9,0-5.06.84-5.34-2.53-9.84-1.69-4.5.84-3.66,4.22-7.31-.56-3.66-4.78-9-8.44-14.62-5.06-5.62,3.37-.56,6.47-4.5,10.41-3.94,3.94-6.47,2.42-10.69,2.33-4.22-.08-8.72,3.01-8.72,4.7s-1.97,3.37-5.06,7.59c-3.09,4.22-.84,11.53,0,14.34.84,2.81.84,9.56,1.12,12.37s2.81,9.28,2.81,9.28c0,0-4.57-1.13-5.52-6.19-.95-5.06-9.1-3.66-9.95,2.25-.84,5.91.28,9,0,14.34-.28,5.34-5.62,10.41-4.5,13.78Z"/>
        <path class="cls-5" d="M611.66,285.87c-1.22-1.31-.47,1.87-1.87,4.31-1.41,2.44-1.69,3.75,0,5.62,1.69,1.87,3.09,6.37,3.09,6.37,1.5-.37,3.09-9.75,2.53-11.81-.56-2.06-2.53-3.19-3.75-4.5Z"/>
        <path class="cls-5" d="M643.42,278.65c3.11.47,6.48,1.31,6.95-1.31s-.61-4.59-.61-4.59c-1.26-2.25-3.42-5.72-5.39-4.97-1.97.75-.19,1.78-.75,4.59-.56,2.81-3.31,5.81-.2,6.28Z"/>
        <path class="cls-5" d="M655.25,273.42c.19,1.77,3.64,4.3,5.1,2.7,1.46-1.59,2.58-2.25,3.05-4.5.47-2.25,2.34-1.87,3.47-5.06,1.12-3.19,1.29-8.05-1.41-7.5-2.95.6-8.44,2.62-7.69,4.03.75,1.41,2.53,3.17.94,4.58-1.59,1.42-3.66,3.98-3.47,5.74Z"/>
        <path class="cls-5" d="M678.59,260.84c1.31-3,3.42-8.3-.28-8.25-3.02.04-5.62-.28-5.53,2.91.09,3.19.37,2.53-.66,7.12-1.03,4.59-1.22,7.25-3.66,10.8-2.44,3.55-4.5,5.14-2.44,6.92,2.06,1.78,4.69,2.43,7.22-1.18,2.53-3.6,5.25-4.35,5.81-6.32.56-1.97-.19-3.19-2.53-3.19s-2.81-1.5-1.13-4.31c1.69-2.81,1.87-1.5,3.19-4.5Z"/>
        <path class="cls-5" d="M686.18,182.19c2.44-.66,4.22,1.31,4.97-1.41.75-2.72-1.59-7.78-4.97-5.25-2.65,1.99-5.44,4.5-4.59,2.53.84-1.97,1.5-4.78-1.5-4.41-3,.38-4.59-2.62-6.47-.66-1.87,1.97-.84,3.28-2.81,5.44-1.97,2.16-.09,5.53,3.19,4.97,3.28-.56,3.66-3.28,5.34-2.16,1.69,1.13,4.41,1.59,6.84.94Z"/>
        <path class="cls-5" d="M682.99,187.72c-.19,1.78.09,3,1.59,3.28,1.5.28,3.12-3.43,1.59-3.84-.83-.23-3-1.22-3.19.56Z"/>
        <path class="cls-5" d="M675.31,191.47c.28,1.5,0,2.72,2.62,2.44,2.62-.28.56-3.84.56-3.84-2.53-.09-3.47-.09-3.19,1.41Z"/>
        <path class="cls-5" d="M728.65,185.57c-4.02,1.19-4.87,4.1-8.53,1.11-3.66-2.99-8.53-2.24-10.78-.65-2.25,1.59-3.28,3.97-1.5,4.98,1.78,1.02,3.56.36,6.94.45,3.37.09,3.56,2.26,6.19.52,2.62-1.74,2.72-1.61,4.69-.97,1.97.64,6.09,1.51,6.09-.99s-.56-5.22-3.09-4.47Z"/>
        <path class="cls-5" d="M748.52,190.03c3.66-.06,6.84-1.45,6.84-1.45,0,0-4.22-2.18-7.41-2.46-3.19-.28-4.22.17-6.19.55-1.97.39-3.28-.65-3.28-.65-1.5-.19-4.69-.87-4.31.65.37,1.51-.03,3.6,2.14,4.34,2.17.73,2.92.39,6.11,0,3.19-.39,2.44-.93,6.09-.99Z"/>
        <path class="cls-5" d="M787.56,123.7c0,1.97-3.94,1.41-2.53,6.05,1.41,4.64,3.37,4.08,3.94,7.73.56,3.66,1.58,4.5,1.07,5.48-.51.98-2.87,5.62,0,8.58,2.87,2.95,4.13,3.09,4.98,4.78.84,1.69,3.8,1.27,4.22,3.8.42,2.53,1.97,2.95,3.51,3.66,1.55.7,7.03,5.34,6.33,2.95-.7-2.39-.28-2.95-4.92-6.75-4.64-3.8-3.94-2.95-4.78-7.03-.84-4.08-3.14-4.08-3.54-8.3-.4-4.22-1.8-10.83.87-11.39,2.67-.56,3.52.42,6.61.42s4.22.84,6.47,1.69c2.25.84,1.41-.98,4.08.98,2.67,1.97,4.08,2.95,5.76,3.09,1.69.14-2.25-.98-3.66-4.5-1.41-3.52-.7-5.34-4.22-6.47-3.52-1.12-5.62-.42-6.61-2.39-.98-1.97-1.41-3.37,1.41-4.5,2.81-1.12,3.8-.84,6.89-3.52,3.09-2.67,5.62-6.33,5.62-9.28s2.25-7.87-3.09-6.61c-5.34,1.27-8.16,2.25-10.97,4.08-2.81,1.83-5.46,3.23-3.71,4.36,1.75,1.12,4.98.56,2.31,2.11-2.67,1.55-5.77,2.39-6.05,4.08-.28,1.69-2.53,6.33-3.8,3.94-1.27-2.39-5.48-2.81-2.11-5.34,3.37-2.53,3.66-.84,5.76-4.78,2.11-3.94,3.52-5.34,1.83-8.16-1.69-2.81-3.09-2.95-4.08-4.08-.98-1.12.98-.42,2.11-2.67,1.12-2.25,1.27-2.81,1.27-4.78s-.98-3.52-.98-3.52c-3.23,1.12-10.83,6.47-10.41,11.25s2.78,5.91-.02,8.86c-2.8,2.95-6.31,5.34-3.64,9,2.67,3.66,4.08,5.2,4.08,7.17Z"/>
        <path class="cls-5" d="M808.51,93.75c2.53-.84,4.78-1.27,6.61-1.83,1.83-.56,0-4.5,0-6.19s-1.83-2.25-3.94-2.25-3.09,1.41-4.92,2.39c-1.83.98-2.39,7.31-2.39,7.87,0,0,2.11.84,4.64,0Z"/>
        <path class="cls-5" d="M783.2,161.52c2.67,1.12,2.81.56,5.2,1.97,2.39,1.41,5.48,4.92,5.77,1.41.28-3.52-4.5-4.92-4.5-4.92,0,0,.28-.56-1.12-3.8-1.41-3.23-5-2.95-6.01-1.83s-2,6.05.67,7.17Z"/>
        <path class="cls-5" d="M777.44,158.43c1.97-1.12,3.06-5.51,2.11-5.62-2.13-.27-4.08,2.25-4.22,3.23-.14.98.14,3.52,2.11,2.39Z"/>
        <path class="cls-5" d="M779.89,161.52c-.91,0-3.02-.7-3.16.84-.14,1.55.21,3.87,1.58,4.05,1.37.17,5.59-.25,4.89-1.23-.7-.98-3.31-3.66-3.31-3.66Z"/>
        <path class="cls-5" d="M799.37,186.69c2.39-3.94-4.22-8.3-4.22-8.3-3.8-1.27-4.38-2.11-7.32,0-2.94,2.11-5.55,2.81-5.3,4.22.25,1.41,3.48,3.66,7.28,4.08,3.8.42,7.17,3.94,9.56,0Z"/>
        <path class="cls-5" d="M774.34,224.1c-2.67-2.39-3.94-3.52-7.45-4.08-3.52-.56-4.92-1.83-8.44,0-3.51,1.83-3.53.83-4.22.7-7.03-1.27-8.16,3.23-9.48,6.47-1.33,3.23,4,5.34,7.8,5.91,3.8.56,3.38,3.09,7.03,3.66,3.66.56,9,.98,11.25,0,2.25-.98,2.81-2.11,6.75-2.53,3.94-.42,6.33-2.53,4.94-4.5-1.39-1.97-5.5-3.23-8.17-5.62Z"/>
        <path class="cls-5" d="M866.87,233.52c.84-4.36,5.2-5.62-.98-8.72-6.19-3.09-8.3-6.19-12.94-7.45-4.64-1.27-7.17.28-10.26-1.97-3.09-2.25-3.52-6.61-7.31-4.92s-3.66,3.52-7.31,3.8-6.61-1.41-12.23-1.97c-5.62-.56-13.78,2.11-13.78,2.11-1.55,1.97,2.53,4.92-3.66,7.31-6.19,2.39-4.92,5.62-2.25,5.62s3.8-.14,5.91-2.25c2.11-2.11,2.81-.84,4.78.7,1.97,1.55,5.62,4.28,7.87,2.42,2.25-1.86,1.83-4.39,3.37-4.39s2.53,2.39,5.34,2.95c2.81.56,1.13,1.12,6.05.56,4.92-.56,2.25-1.83,7.45-2.11,5.2-.28,6.19.56,7.87,1.97,1.69,1.41,1.69,3.09,4.64,3.66,2.95.56,2.67-.56,4.78,1.69,2.11,2.25,3.37,5.12,5.76,4.81,2.39-.31,6.05.53,6.89-3.82Z"/>
        <path class="cls-5" d="M795.3,233.09c-4.92.98-6.66,4.64-1.36,5.06,5.3.42,8.68,0,9.1-2.53.42-2.53-1.41-4.64-1.41-4.64-.42-.14-1.41,1.12-6.33,2.11Z"/>
        <path class="cls-5" d="M805.98,232.63c1.22,1.41,3.19,1.69,3.47.94.28-.75-.75-2.59-.75-2.59-2.06.43-3.94.25-2.72,1.65Z"/>
        <path class="cls-5" d="M814.14,230.97c-1.59-.04-3.56-1.74-2.81,0,.75,1.75,1.78,2.5,2.81,2.31,1.03-.19,0-2.31,0-2.31Z"/>
        <path class="cls-5" d="M843.85,192.67c3.94,1.34,7.5,3.03,10.31.96,2.81-2.06,2.81-6.25,0-7.91-5.42-3.19-8.25.41-12.19,1.72-3.94,1.31-2.06,3.88,1.87,5.22Z"/>
        <path class="cls-5" d="M864.29,167.4c.19,4.66-.38,8.23,3.37,7.66,3.75-.56,5.63-.94,5.63-4.12s-2.25-7.04-2.25-7.04c-1.87.29-6.94-1.17-6.75,3.5Z"/>
        <path class="cls-5" d="M1106.61,204.55c-1.83-3.37-6.19-8.86-11.53-6.75-5.34,2.11-8.3,2.95-12.09.42-3.8-2.53-7.45-2.53-14.2-4.64-6.75-2.11-7.03-2.39-12.8-5.91-5.77-3.52-6.75-4.08-10.12-3.8-3.37.28-5.91-2.81-8.72-4.36s-5.62-1.55-9.42.7c-3.8,2.25-6.05,2.67-6.33,4.36-.28,1.69.7,4.08.84,5.34.14,1.27,1.12,3.52-.84,3.66-1.97.14-2.11-1.97-4.5-.14-2.39,1.83-7.73,1.27-7.73,1.27,0,0,1.41-2.81-2.81-.56-4.22,2.25-3.94,6.33-3.94,6.33,0,0,1.27,2.53.14,2.95-1.12.42-.14.14-3.09.42-2.95.28-3.23,2.67-3.23,3.09s-1.69-2.67-3.94,1.41c-2.25,4.08-1.07,8.16-1.24,8.86-.17.7-.59,1.55-2.56,1.69-1.97.14-3.09-1.13-4.5.42-1.41,1.55-.42,2.81-2.67,4.36-2.25,1.55-9.61,5.39-14.3-.8-4.69-6.19-5.81-7.87-5.81-9.94s1.5-8.25.94-8.44c-.56-.19-3.37-3.75-5.06-1.69-1.69,2.06.19,6.75.19,7.69s.37,6.75-2.25,2.62c-2.62-4.12-4.87-3.56-5.06-7.12-.19-3.56.75-5.81.75-7.12s1.88-2.81-.94-6.94c-2.81-4.12-4.31-4.87-2.25-6.37,2.06-1.5,1.5,4.5,3.56-3.56,2.06-8.06-.19-8.62-2.62-10.69-2.44-2.06.37-3,0-7.31-.38-4.31-2.63-5.06-5.06-4.12-2.44.94-4.31.37-9.56-1.31-5.25-1.69.37,4.69-7.69-2.25-8.06-6.94-22.03-7.45-27.37-2.74-5.34,4.71-7.59,4.15-9.84,5.13-2.25.98-7.78,2.65-7.78,2.65-2.81,1.52-4.5,5.46-2.81,7.14,1.69,1.69,3.34,5.18-.67,6.62-4.01,1.44-10.2,1.63-6.26,3.32,3.94,1.69,8.25.56,10.5,0,2.25-.56,2.62-.19,6.56,2.81,3.94,3,7.12,2.06,6.37,6.19-.75,4.12-3.37,6.94,1.31,8.81,4.69,1.87,8.81,4.69,14.06,3.19,5.25-1.5,5.44-2.06,9.56-1.69,4.12.38,5.62.38,7.31.38s2.62.19,2.44-1.31c-.19-1.5-3.94-2.95.94-2.22,4.87.72,6.94.35,8.25,1.29,1.31.94,2.81,2.81,2.25,4.87-.56,2.06-2.81.75-4.69,4.87-1.87,4.13-2.06,4.69-6.19,1.69-4.12-3-7.5-6.75-10.69-2.44-3.19,4.31-4.12,9.19-7.87,7.12-3.75-2.06-1.89-4.5-5.91-3-4.02,1.5-4.59-.48-9.09,1.07-4.5,1.55-1.31,4.18.75,5.3,2.06,1.12,2.06-2.81,6.37,1.12,4.31,3.94,3.56,5.62,6.19,8.25,2.62,2.62,4.87-2.25,5.06,2.25.19,4.5.75,4.81-3.19,4.75-3.94-.06.56,8.19,3.75,11.37,3.19,3.19,7.87,4.5,11.25,0,3.37-4.5,3-6.69,2.81-9.16-.19-2.47,2.44-.44,3.56-5.76,1.12-5.33.75-2.51,3-8.33,2.25-5.81,5-6.56,5-6.56,0,0,.44,4.12-1.43,7.69-1.87,3.56-2.06,2.62-.19,8.44,1.87,5.81-.19,9.56,3,6.94,3.19-2.62,2.44-4.82,4.5-2.41,2.06,2.41,2.02,6.02,8.06,6.16,6.05.14,8.3-2.53,10.97-.98,2.67,1.55-3.52.14-5.2,2.11-1.69,1.97.42,4.92,3.09,5.62,2.67.7-.14,2.53,3.94,4.22,4.08,1.69,9.7.84,13.5,1.69,3.8.84,6.33,2.81,9.7,4.08,3.37,1.27,8.44,3.94,13.36,4.08,4.92.14,13.73-.28,15.8,4.22,2.06,4.5,6.75,6.37,11.34,4.59,4.59-1.78,5.62,1.22,5.62,1.22-5.06.75-6,1.69-5.25,3.19.75,1.5,3.28,2.63,7.12,1.41,3.84-1.22,4.97-.56,4.97-.56,0,0-4.03,1.97-3.56,3.19.47,1.22,5.06,3,5.72,3.19-5.81,3-3.84,6.94,0,9.84,3.84,2.91.66,4.41,0,6.75-.66,2.34,7.87,8.25,11.53,10.22,3.66,1.97-.75,2.16-3.47,2.34-2.72.19-1.78,3.56.09,4.5,1.87.94,2.34,3.09,7.5,2.81,5.16-.28,7.69-2.01,9,.02,1.31,2.04,2.34,2.88,0,2.69-2.34-.19-4.87.66-7.41.75-2.53.09-4.97-.56-6.47-.56s3.56,3.75,5.81,5.44c2.25,1.69,1.97,1.69.66,7.22-1.31,5.53-3.94,6.09-3.47,7.87.47,1.78,2.81,2.72,4.97,1.41,2.16-1.31,1.31-.93,4.69.61,3.37,1.54,5.72,1.92,7.31-.43,1.59-2.34,4.69,0,7.22-1.41s3.94-4.87,3.19-6.94c1.97,3.19.47,8.91-1.03,11.53-1.5,2.62,8.62,4.31,8.62,8.44s1.31,8.62,5.44,9.94c1.06.34,4.99.64,10.22.9v-158.15c-1.19-.1-2.86-.62-3.94-2.63Z"/>
        <path class="cls-5" d="M858.1,151.91h4.22c1.12,0,.94.09,5.91,1.78,4.97,1.69,2.53-1.31,2.62-2.25.09-.94-5.44-3.19-5.91-4.4s1.5.09,5.21.46c3.71.37,2.57.94,6.88,3.37,4.31,2.44,4.03-.28,5.53-1.22,1.5-.94-.28-3-1.41-4.41-1.13-1.41-4.59-2.72-10.5-3-5.91-.28-4.5,1.12-6.38,2.63-1.88,1.5-3.84,1.59-6.93.94,0,0-2.34.75-3.75,3.37-1.41,2.62,4.12,2.72,4.5,2.72Z"/>
        <path class="cls-5" d="M984.56,162.37c2.25,1.12,5.2,2.39,4.36,5.91-.84,3.52,2.81,1.27,7.31,1.13,4.5-.14,6.89.42,5.34-.98-1.55-1.41-4.92-2.53-6.33-6.19-1.41-3.66-6.19-3.8-7.59-4.36-1.41-.56-8.16-1.27-10.12-.98,0,0,2.39,6.89,2.95,7.31.56.42,1.83-2.95,4.08-1.83Z"/>
        <path class="cls-5" d="M997.92,183.88c-.42-.42-3.8-3.23-8.13-1.83-4.33,1.41-7.76.7-10.15,0,0,0,1.12,2.25,1.83,5.48.7,3.23,7.31,1.97,10.26,1.41,2.95-.56,2.67.56,8.58,0,5.91-.56,7.17,0,11.95,0s3.66-2.81.84-4.21c-2.81-1.4-5.62-2.54-8.3-.85-2.67,1.69-6.47.42-6.89,0Z"/>
        <path class="cls-5" d="M1053.08,324.96c-4.78-1.12-6.09-1.69-7.5,0-1.41,1.69-5.25,6-5.16,7.22.09,1.22.47,2.25-1.78,6.37-2.25,4.12-4.5,6.37-5.06,7.12-.56.75-5.62,3.37-5.62,3.37,1.97,0,17.81,0,19.4-2.16,1.59-2.16,2.44-5.06,4.97-5.53s2.62.38,4.59-2.25c1.97-2.63,3.09-3.84,2.81-5.34-.28-1.5,0-3.19-1.31-4.5s-.56-3.19-5.34-4.31Z"/>
        <path class="cls-5" d="M1051.58,345.68c0,1.31,1.31,3.94,2.16,4.31.84.37,3.47-.09,4.22,0,.75.09-2.06-7.31-2.06-7.31-2.16.84-4.31,1.69-4.31,3Z"/>
        <path class="cls-5" d="M957.56,279.68c-2.44-.09-3-1.59-4.5-1.97-1.5-.38-2.91.19-4.03,1.03-1.12.84-4.87,2.91-2.44,2.91s4.22.54,4.5,1.49c.28.95-2.25,4.7-.66,5.54.41.22,1.97-1.78,4.78-2.25,2.81-.47,3.66-.84,3.28-2.62-.37-1.78,1.5-4.03-.94-4.12Z"/>
        <path class="cls-5" d="M954.75,289.43c-2.81.66-3.19,1.78-4.5,2.16,0,0-.66,1.12-.66,1.41s2.25,1.12,3.75,1.69c1.5.56,1.31,1.87,2.13,3.09.82,1.22,2.75-.19,4.34-1.59,1.59-1.41.56-4.87.47-6.09-.09-1.22-2.72-1.31-5.53-.66Z"/>
        <path class="cls-5" d="M943.76,290.56c.02.37.02,1.31.02,1.31-.19,1.03,1.1,2.72,2.01,3.47.9.75,4.74,2.9,4.74,2.9,0,0,1.13-.84,0-2.15-1.12-1.31-3.28-2.25-3.75-3.47-.47-1.22-3.04-2.44-3.02-2.06Z"/>
        <path class="cls-5" d="M956.91,300.59c-1.03-.56-2.16-1.03-2.16-1.03-1.97.37-2.72,1.03-1.59,2.53,1.12,1.5.94,2.25,2.91,2.34,1.97.09,1.87-3.28.84-3.84Z"/>
        <path class="cls-5" d="M951.03,301.99c-1.25-.75-2.75-2.44-2.75-2.44-1.59-.94-4.52-2.81-4.52-2.81,0,0-2.32,3.56-.64,5.25,1.69,1.69,2.51,1.32,2.66,2.44.15,1.12-1.85,1.78-2.02,2.15-.17.38.02,1.31.58,2.06.56.75.14,3.09,1.05,3.37.92.28,3.45-.94,5.23-1.97,1.78-1.03,2.04-.56,2.01-3.37-.04-2.81-.35-3.94-1.6-4.69Z"/>
        <path class="cls-5" d="M921.85,273.03c-.7-.42-3.51,1.12-4.64,4.57-1.13,3.44-2.53,10.34-2.95,10.34,0,0,3.09,1.12,3.09-1.69s2.53-7.73,4.5-9.84c1.97-2.11.7-2.95,0-3.37Z"/>
        <path class="cls-5" d="M907.78,278.23c-1.97.56,1.97,8.72,2.11,9.14.14.42,1.55,1.66,1.55,1.66,0-.39,1.27-6.44,0-7.71-1.27-1.27-1.69-3.66-3.66-3.09Z"/>
        <path class="cls-5" d="M885.29,319.43c-2.53-1.41-5.48.84-6.05,2.74-.56,1.9-3.94,1.48-6.05,4.43-2.11,2.95,1.12,5.77,0,7.73-1.12,1.97-4.5,2.95-4.36,4.08.14,1.12,8.3,7.03,10.26,3.52,1.97-3.52,5.34-7.63,5.48-10.92.14-3.28-.56-6.1-.56-6.1.84-2.67,3.8-4.08,1.27-5.48Z"/>
        <path class="cls-5" d="M865.6,343.03c-.7,1.85-4.92,4.24-4.92,4.24,0,0,2.72,2.39,4.74.98,2.01-1.41,4.74-4.5,4.74-4.5-.61-.56-3.85-2.57-4.55-.72Z"/>
        <path class="cls-5" d="M762.11,328.8c-6.19,1.5-5.39,3.75-8.98,3.19-3.58-.56-9.96-4.96-11.65-.98-1.69,3.98-1.12,6.23-1.12,6.23,0,0,5.81-1.87,9.56,0,3.75,1.87,4.87,5.62,7.87,1.69,3-3.94,3.94-4.69,5.81-5.81,1.87-1.12,4.69-5.81-1.5-4.31Z"/>
        <path class="cls-5" d="M833.17,334.58c-1.88,2.09.56,4.53,1.69,5.09,1.12.56,3.75,2.9,5.06.98,1.31-1.92,0-3.98,0-3.98-3.56-1.5-4.87-4.19-6.75-2.09Z"/>
        <path class="cls-5" d="M798.67,344.18c-2.5-.49-2.81-2.1-5.81-1.15-3,.96-3.94.96-5.06,1.15-1.12.19-1.31.94,0,2.62,1.31,1.69,1.31,1.17,5.62,1.9,4.31.73,11.06-3.37,5.25-4.52Z"/>
        <path class="cls-5" d="M769.61,342.27c.37,2.66,2.81,6.04,4.69,5.1,1.87-.94,2.25-4.33,2.25-4.33-.94.21-7.31-3.43-6.94-.77Z"/>
        <path class="cls-5" d="M812.92,347.52c.75,2.28,6.94,1.9,6.94,1.9v-1.9c-2.06-.35-7.69-2.28-6.94,0Z"/>
        <path class="cls-5" d="M708.68,367.42s-1.12,1.69-.56,5.25c.56,3.56-2.81,1.12-4.87,3-2.06,1.87-6,1.5-6.56.94s-4.69-1.87-5.81-1.69c-1.13.19-2.81,4.12-3.19,7.5-.37,3.38-2.25,3.56-5.25,6.75-3,3.19.94,2.44,2.25,4.31,1.31,1.87-2.44,2.06-5.81,2.81-3.37.75.94,3.75,4.5,4.31,3.56.56,7.5-1.69,9.94-3.56,2.44-1.87,4.12,1.12,8.81,0,4.69-1.12,7.31-6.19,7.69-7.69.38-1.5-.19-2.44,0-3.94.19-1.5,15.75-7.12,15.75-7.12l-9.75-11.81-7.12.94Z"/>
        <path class="cls-5" d="M669.12,406.42c-.94,1.5-2.81,1.87-6.37,4.5-3.56,2.62-4.5,4.12-1.69,4.5,2.81.37,4.12.56,9.19-2.44,5.06-3,8.62-5.81,6.37-8.62-1.88-2.35-6.56.56-7.5,2.06Z"/>
        <path class="cls-5" d="M671.37,396.48c.56,2.62,4.31,5.06,4.31,2.44v-5.25c-1.69.56-4.87.19-4.31,2.81Z"/>
        <path class="cls-5" d="M638.37,402.11c-.94,2.25-3,4.12-3,4.69s-4.31,2.51-1.69,2.76c2.63.24,6.37.43,8.81-1.07,2.44-1.5,0-5.01,0-5.01-2.81-.99-3.19-3.62-4.12-1.37Z"/>
        <path class="cls-5" d="M706.24,351.68c2.62.75,4.5,1.5,6.37.94,1.88-.56-1.69-3.47,6-3.33,7.69.14,5.81-2.29,3.19-2.67-2.62-.37-12.37-1.34-12.56-.86-.19.48-3,0-3,0,0,1.04-2.62,5.17,0,5.92Z"/>
        <path class="cls-5" d="M699.4,354.86c3.66-2.67,4.28-3.98,3.52-5.06-.98-1.41-3.8.28-3.8,2.11s-3.52.98-5.06.9c-1.55-.08-1.97,2.76-1.12,4.02.84,1.27,2.81.7,6.47-1.97Z"/>
        <path class="cls-5" d="M680.28,358.8c1.83.84,3.52-.84,6.19-3.8,2.67-2.95,7.03-6.61,7.03-7.48,0,0-1.69-1.52-3.09-1.9-1.41-.38-2.53,2.77-3.23,2.63-.7-.14-3.94-1.41-4.78.14-.84,1.55.14,3.66-1.27,4.98-1.41,1.33-2.67,4.58-.84,5.42Z"/>
        <path class="cls-5" d="M662.42,357.48c.84-1.6,2.39-1.91,4.36-3.32,1.97-1.41,4.53-4.94,4.53-4.94,0,0,1.24-4.76.96-6.09-.28-1.34-4.36-1.9-6.61-2.46-2.25-.57-2.39,5.06-2.53,4.97,0,0-5.34,6.43-5.91,8-.56,1.57-5.06,1.24-8.58-.81-3.52-2.05-6.33-2.45-9.7-.5-3.37,1.94-4.5,2.28-6.05,1.32-1.55-.96-3.09-3.82-6.61-5.79-3.52-1.97-6.75.7-7.87,1.38-1.13.68-5.48-2.79-7.59-3.62-2.11-.83-6.47.83-10.12,3.62-3.66,2.79-4.92,3.11-7.31,4.4-2.39,1.29-3.09,4.62,0,7.71,3.09,3.09,11.81,1.41,11.81,1.41,0,0,4.64,2.25,5.62,1.97.98-.28,3.09-.56,4.92.14,1.83.7,4.36,2.25,6.05,1.64,1.69-.61,3.52-4.88,3.52-4.88,0,0,5.2.14,9-.14,3.8-.28,3.09.42,4.5,0,1.41-.42,4.36-1.83,5.2-2.45s2.25.06,6.05.63c3.8.56,7.17,0,9.42,0s2.11-.56,2.95-2.17Z"/>
        <path class="cls-5" d="M677.65,347.41c-.54-.07-2.93.28-2.93.56s-1.2,1.83-.77,2.18c.42.35-.63,2.11.77,1.83,1.41-.28,3.23-2.02,3.44-2.27.21-.26-.52-2.3-.52-2.3Z"/>
        <path class="cls-5" d="M613.91,391.14c-3.94-1.69-3.8-3.09-4.22-5.06-.42-1.97-1.97-3.52-3.09-3.8-1.13-.28-4.22-.14-4.22-1.63s-1.41-3.01-2.11-4.11c-.7-1.1-5.06-3.12-8.95,2.36-3.89,5.48-5.11-3.66-6.37-4.22-1.27-.56-2.39-2.25-2.39-2.25,0,0-8.86,1.27-12.65,2.39-3.8,1.12-2.25,6.89-2.25,7.73s4.36.56,10.97,1.27,5.06-.14,6.05-.14.7,2.53.98,3.8c.28,1.27,1.83.98,4.5.98s1.83.14,2.81,1.97.7,2.53,3.37,5.76c2.67,3.23,3.8,1.83,8.86,1.83s5.48-1.41,7.45-2.25c1.97-.84,5.2-1.55,5.34-2.11.14-.56-.14-.84-4.08-2.53Z"/>
        <path class="cls-5" d="M570.74,360.49c1.12-.7,4.08,0,6.19-1.54,2.11-1.54-1.13-1.55-2.71-2.54-1.59-.98-.8-2.67-.1-5.76.7-3.09-2.53-2.53-4.36-2.11-1.83.42-.14,4.92-2.42,5.62-2.27.7-.12-.98,0-3.52.11-2.53-1.38-3.37-6.44-4.22s-2.95,1.97-6.08,1.27c-3.13-.7-4.33-2.67-6.43-3.66-2.11-.98-1.97,1.27-4.92,1.83-2.95.56-2.11,2.11,2.67,6.19,4.78,4.08,6.05,1.69,7.87,2.81,1.83,1.12.42,2.39-2.81,1.69-3.23-.7-4.22,2.53-5.76,2.39-1.55-.14-4.5-1.41-4.92-1.41s-1.69-5.48-1.69-5.48c0,0-3.23-1.83-6.75-1.83s-5.76.56-8.3.56-4.5,3.23-6.19,5.9c-1.69,2.67-2.81,8.02,0,11.4,2.81,3.37,2.81,0,9.7,0s5.06-.42,6.89-1.45c1.83-1.03,1.69-.51,7.87-2.34,6.19-1.83,1.55.14,5.06,1.12,3.52.98,3.8,0,5.91-1.38,2.11-1.38,2.81-2.13,6.61-2.55,3.8-.42,1.13,1.27,3.94,2.11,2.81.84,3.52.28,4.36,0,.84-.28,1.69-2.39,2.81-3.09Z"/>
        <path class="cls-5" d="M503.67,349.38c-2.53,1.55-2.25,4.78-2.95,6.89-.7,2.11-4.08,2.11-7.73,4.36-3.66,2.25,1.41,1.41,2.67,2.25,1.27.84,1.69-.42,4.64-.7,2.95-.28,2.81.7,5.62.7s4.08-2.11,5.2-4.92c1.13-2.81,3.29-7.69,1.69-8.58-5.34-2.95-6.61-1.55-9.14,0Z"/>
        <path class="cls-5" d="M580.44,352.47c.56,2.39,1.69,3.38,1.41,5.91-.28,2.53-2.25,4.22,0,3.23,2.25-.98,3.38-1.12,3.23-3.37-.14-2.25,0-5.77,0-5.77-.98-.14-5.2-2.39-4.64,0Z"/>
        <path class="cls-5" d="M487.78,343.79c-2.25-1.3-3.8-6.78-7.31-4.25-3.52,2.53-3.66,4.92-8.16,3.66-4.5-1.27-7.31-3.09-7.45-1.83-.14,1.27-.7,2.43-.7,2.43,0,0-.28,6.86,3.37,7.14,3.66.28,5.91,1.55,7.73,3.8,1.83,2.25,3.66,1.97,4.64,4.08.98,2.11,5.2-5.62,7.59-5.62s3.58,2.51,4.18-1.7c.6-4.21-1.65-6.39-3.9-7.69Z"/>
        <path class="cls-5" d="M479.91,312.82c0,1.27,3.23,3.8,3.94,4.5.7.7,1.55.98,1.55.98,1.12-.84.98-3.37,2.67-3.23,1.69.14,2.95-.84,2.81-1.27-.14-.42-5.76-1.97-7.03-1.83-1.27.14-3.94-.42-3.94.84Z"/>
        <path class="cls-5" d="M459.24,352.05c-1.69-2.81,0-5.34,0-8.26s2.81-5.52,1.41-6.64c-1.41-1.12-2.25-2.25-7.31-2.43-5.06-.18-6.75,0-6.75,0,0,0-5.06-1.51-5.91-1.51s-5.62,1.97-11.25,1.41c-5.62-.56-3.37-.84-3.09-5.06.28-4.22-3.66-7.87-3.66-9.56s.84-5.91-1.97-8.02c-2.81-2.12-11.81,0-11.81,0,0,0-5.34-.41-6.19,0-.84.41-4.22-6.6-7.87-8.01-3.66-1.41-3.09,1.41-8.16,0-5.06-1.41-7.87-5.62-11.25-5.62s-2.81,7.31-3.09,11.53c-.28,4.22-3.66,3.94-4.5,3.94s-5.06-1.41-9.56-1.84c-4.5-.43-7.59,3.24-12.37,3.17-4.78-.07-8.44-3.58-12.09-3.17-3.66.41-8.44-8.85-8.44-11.38s-2.81-4.22-8.16-4.78c-5.34-.56-8.16,0-14.9-3.09-6.75-3.09-12.66-2.25-12.66-2.25l-4.5,1.97s-3.94-1.69-6.19-2.25c-2.25-.56-5.91,0-11.81-1.97-5.91-1.97-5.91,1.69-7.59,7.87-1.03,3.76-.49,4.81-.11,5.07-.98.02-4.44.4-6.08,4.49-1.69,4.22-6.75,2.25-6.75,2.25,0,0-5.62,1.12-3.37,4.07,2.25,2.94,6.47,2.68,11.53,0,5.06-2.68,5.91-.69,9.56,0,3.66.69,0,3.52,4.5,6.34,4.5,2.81,8.72-4.78,6.47,0-2.25,4.78-8.16,6.19-5.91,7.59,2.25,1.41,4.5,2.53,12.65,3.37,8.16.84,3.94-.84,6.47-.84s2.81.84,9.56,2.25c6.75,1.41,3.38,1.69,6.47,3.66,3.09,1.97,6.19,2.53,9.56,2.53s5.34-1.69,5.91-3.09c.56-1.41,4.22-1.97,5.62-1.69,1.41.28,1.13,2.53,4.5,4.78,3.37,2.25,2.53-4.5,5.25-5.91,2.72-1.41.66.84,3.19,3.66,2.53,2.81,3.09,2.53,8.16,1.97,5.06-.56,6.75,1.12,8.75,2.29,2.01,1.17.81.52,6.15,3.05,5.34,2.53,3.09,2.25,8.72,5.73,5.62,3.48,7.59.46,9-1.51,1.41-1.97,10.97,2.88,10.97,2.88l6.47-1.37s2.53-2.07,15.19,1.37c12.65,3.44,6.47,3.03,10.12,1.62,3.66-1.41,5.62-2.53,9.56-2.99,3.94-.46,3.66,2.71,4.78,2.71s5.06,1.12,9.84,6.32c4.78,5.2,6.19.99,7.87,0,1.69-.99,5.06,2.48,5.06,2.48,0,0,3.66,2.17,4.92,0,1.26-2.17-3.23-4.3-4.92-7.11Z"/>
        <path class="cls-5" d="M444.75,315.14c-3.37,1.33-16.17-1.89-16.73-1.89,0,0-1.97,2.95-.98,6.33.98,3.37,4.5,3.66,9.56,4.33,5.06.68,9.56-3.21,12.09-5.6,2.53-2.39,4.36-2.11,7.45-2.85,3.09-.74-.56-.67-5.91-2.22-5.34-1.55-2.11.56-5.48,1.89Z"/>
        <path class="cls-5" d="M302.22,215.75c-.56,3.75,0,8.62,1.69,9.19,1.69.56,4.31-.38,5.81-2.81,1.5-2.44.56,0,3.75.19,3.19.19,4.5-.56,6.19-3,1.69-2.44,6.94,1.47,3.75-3.58-3.19-5.05-5.81-6.73-8.25-7.11-2.44-.37-8.62-2.25-11.25-2.25h-2.62s1.5,5.62.94,9.37Z"/>
        <path class="cls-5" d="M258.54,198.88c3.37,1.5,2.25,2.06,3.94,7.5,1.69,5.44,2.06,5.62,5.81,8.06,3.75,2.44,3.75,1.12,6.94,3,3.19,1.87,3,3.75,5.81,3,2.81-.75.19-5.06-1.31-6.75-1.5-1.69,2.44-2.81,4.31-5.62,1.87-2.81-2.62-1.5-5.06-1.69-2.44-.19-10.12-8.62-10.69-10.87-.56-2.25-2.06-7.31-2.06-10.69s-2.81-5.63-8.44-4.12c-5.62,1.5,3.19,6.75,2.44,8.25,0,0-3.19-.75-4.87-3.37-1.69-2.62-3.19.56-5.44,3.94-2.25,3.37-1.12,2.44,0,6,1.12,3.56,5.25,1.87,8.62,3.37Z"/>
        <path class="cls-5" d="M242.73,276.12c-.81-5.62,9.81,7.87,9.81,7.87,0,0,7.87-7.31,7.87-9.56s-2.25-7.87-3.37-18.56c-1.13-10.69,3.37-3.94,5.62-5.62,2.25-1.69.56-7.31,0-9.56s-4.5-10.12,3.89-11.18c8.38-1.06,5.11-4.57,3.43-4.41-1.69.16-8.44-8.03-11.81-13.09-3.37-5.06-5.06-8.44-9.55-9-4.49-.56-15.2,3.37-15.2,3.37,0,0,3.37-4.5,3.94-5.96s0-7.54,0-7.54l-3.94-9s-1.69-10.12-3.94-10.12-6.75.56-10.12,0c-3.37-.56-5.62,0-10.69-2.44s-5.62-6-5.06-7.64c.56-1.64,10.12-4.55,11.81-7.36,1.69-2.81-16.87,0-16.87,0l7.31-5.62,7.31-2.81v-6.75s-6.75-4.5-14.06-2.47c-7.31,2.03-6.75,5.84-9,5.84s-7.31-5.84-7.31-5.84h7.87s4.5-4.84,2.25-5.41c-2.25-.56-15.75-7.87-15.75-7.87,0,0-2.81-7.87-2.81-9.56s-5.06-6.75-6.75-7.87c-1.69-1.12-7.31-2.25-9-3.94-1.69-1.69-2.81-10.12-2.81-11.81s-5.06-4.5-7.87-7.75c-2.81-3.25-16.31,0-16.31,0,0,0-7.31-.69-8.44-4.06-1.13-3.38-1.13-9-2.81-11.81-1.69-2.81-5.06-3.37-8.44-6.56-3.37-3.19-15.19-3.64-15.19-3.64l-4.5-10.04s-9.56-4.5-15.75-8.29c-6.19-3.79-2.81-7.46-4.5-11.96-1.69-4.5-5.06-11.81-14.62-16.31-9.56-4.5-9.56,1.69-11.81-1.12-2.25-2.81-11.81-1.69-21.37-2.25C14.62,7.84,11.81,2.77,9,.52,6.19-1.73,0,3.34,0,14.58s6.19,10.12,7.31,17.37c1.12,7.25,7.31,5.69,12.94,4.44,5.62-1.25,2.81,4.63,8.44,7.3,5.62,2.67,6.19,2.95,13.5,4.64,0,0,7.87,13.5,9.56,13.69,1.69.19,8.44,8.25,11.25,10.5,2.81,2.25,0,6.19,1.69,16.87,1.69,10.69,6.75,0,9,0s6.19,9.56,7.87,10.69c1.69,1.12,6.75,1.69,6.75,1.69l4.5,9s-1.13,2.81,2.25,18.56c3.37,15.75,5.06,3.94,5.06,3.94,0,0,7.87,7.31,6.19,10.69-1.69,3.37,0,0,8.44,6.19,8.44,6.19,5.06,3.94,10.69,16.61,5.62,12.68,2.81,4.76,5.62,19.38,2.81,14.62-2.25,11.25,4.97,14.28s4.59,3.15,13.03,10.46c8.44,7.31,3.94,14.06,6.19,16.69,2.25,2.63,4.5,1.87,14.62,5.91,10.12,4.03-.56,3.97-.56,3.97,0,0-.56,3.25,0,6.06.56,2.81,0,0,8.44,1.87,8.44,1.87,5.06,3.19,14.62,15,9.56,11.81,10.12,5.06,20.81,10.69,10.69,5.62,4.5,5.06,8.44,12.94,3.94,7.87,6.75,1.12,6.19,0-.56-1.12,2.25-6.19,7.87-3.94,5.62,2.25,7.06,3.94,7.06,3.94,0,0,.81-2.25,0-7.87Z"/>
        <path class="cls-5" d="M92.8,168.13c-2.25-3.66-9,.84-11.81,3.09-2.81,2.25-.28,4.5,5.34,9,5.62,4.5,5.91,5.07,9,6.75,0,0,3.94.84,5.34,0,1.41-.84-.56-5.34-1.12-8.16-.56-2.81-4.5-7.03-6.75-10.69Z"/>
        <path class="cls-5" d="M127.39,217.06c-.84-.84-4.78-3.78-4.78-1.33s1.69,7.83,3.66,9.36c1.97,1.53,6.75,9.68,5.62,3.78s-4.5-11.81-4.5-11.81Z"/>
        <path class="cls-5" d="M105.46,194.57c-1.12.84.56,5.23,2.25,5.85,1.69.62,5.91,3.43,5.91,1.46v-4.22s-7.03-3.94-8.16-3.09Z"/>
        <path class="cls-5" d="M63.28,114.14c-2.53-2.53-2.81-2.81-4.78-5.62-1.97-2.81-1.69-5.06-4.22-4.22-2.53.84-.28,1.12-5.91,1.41-5.62.28-2.81,5.62,0,7.59,2.81,1.97,7.03,5.91,8.72,7.59,1.69,1.69,6.19,6.47,6.19,6.47,2.53-1.13,3.37-2.81,3.37-7.31s-.84-3.37-3.37-5.91Z"/>
        <path class="cls-5" d="M92.52,143.88c-1.41-2.74-1.13-4.71-5.91-4.71s-4.5-1.69-4.78,0c-.28,1.69,3.37,4.08,5.34,4.71,1.97.63,5.34,0,5.34,0Z"/>
        <path class="cls-5" d="M83.24,162.23c1.41-2.81,1.69-7.31,1.69-7.31-5.62-1.12-7.87-2.53-7.59,0,.28,2.53-.02,7.31-.02,7.31,0,0,4.52,2.81,5.93,0Z"/>
        <path class="cls-5" d="M9.56,72.38s2.25,4.08,6.19,4.64c3.94.56,6.19-1.69,6.19-1.69l-6.75-5.91-5.62,2.95Z"/>
        <path class="cls-5" d="M159.55,98.39c1.5,2.62,1.5,3.75,5.06,3.19,3.56-.56,5.44-3.75,4.12-5.81-1.31-2.06-4.12-2.44-4.12-2.44-1.12-2.06-8.62-.75-7.5,0,1.12.75.94,2.44,2.44,5.06Z"/>
        <path class="cls-5" d="M172.48,108.51c3.75,3.19,1.5,8.81,4.5,9,3,.19,8.62-1.13,6.19-6-2.44-4.87-4.69-4.31-4.69-4.31l-7.31-1.69s-2.44-.19,1.31,3Z"/>
        <path class="cls-5" d="M181.29,125.01c4.12,1.69,9,2.62,11.62,3.75,2.62,1.13,5.06,4.69,5.06,4.69,0,0,5.06-2.44,3.94-6.09-1.12-3.66,1.38-12-9-11.62-1.31.05-7.81.28-9.15,3.09-1.35,2.81-6.6,4.5-2.47,6.19Z"/>
        <path class="cls-5" d="M229.29,119.01c1.12.37,1.69.37,2.06,3.94.37,3.56,3.56,5.44,3.37,0-.19-5.44,3-3.39.75-7.23-2.25-3.84-4.31-4.61-5.44-4.2-2.56.94-6.75,3.73-6.19,4.2.56.48,4.31,2.91,5.44,3.29Z"/>
        <path class="cls-5" d="M229.1,150.7c3.37,2.06,3.56.94,6,1.5,2.44.56,4.5,3.37,6.75,3,2.25-.37,2.44-1.7,2.44-1.7-1.87-2.8-6.94-7.86-10.69-7.67-3.75.19-7.87,2.81-4.5,4.87Z"/>
        <path class="cls-5" d="M227.85,154.63s-4,3.75-2.88,5.44c1.12,1.69,9.75,8.12,9.75,3.41s-1.88-7.16-1.88-7.16l-5-1.69Z"/>
        <path class="cls-5" d="M215.23,119.76c1.69,0,5.72-1,5.81-2.23.09-1.24,1.13-5.55-.75-5.17-2.51.5-3.37,3.19-5.06,4.03-1.69.84-1.69,3.37,0,3.37Z"/>
        <path class="cls-5" d="M311.03,40.04c2.67,1.27,7.31,3.09,7.17,5.48-.14,2.39,2.53.84,2.53.84,0,0,4.08-6.61.7-9.28-3.38-2.67-5.34-6.31-7.03-5.12-1.69,1.19-6.05,6.81-3.38,8.08Z"/>
        <path class="cls-5" d="M256.76,72.09c.84.42,9.56-6.19,5.48-7.73-1.47-.56-8.02-1.27-8.3,1.41-.28,2.67,1.97,5.91,2.81,6.33Z"/>
        <path class="cls-5" d="M168.87,271.2c-.42,3.23,2.25,3.37,4.15,5.62,1.9,2.25,2.04,7.45,4.15,5.06,2.11-2.39,0-7.31,0-7.31-1.41-1.83-7.87-6.61-8.3-3.37Z"/>
        <path class="cls-5" d="M741.3,59.77c-1.14-3.88-3.19-10.5-6-11.25-2.81-.75-2.06,3-1.69,5.62.38,2.62-3.95,5.81-.38,7.31,3.57,1.5,9.27,2.41,8.07-1.69Z"/>
        <path class="cls-5" d="M766.75,39.61c-.09,2.41,2.95,1.69,3.94,0,.98-1.69,1.97-5.48,1.41-7.45s-1.69-2.39-4.08-3.23c-2.39-.84-4.78,1.97-2.67,4.08,2.11,2.11,1.41,6.61,1.41,6.61Z"/>
        <path class="cls-5" d="M765.35,47.49c1.83,3.37,4.78,4.22,4.92,2.81.14-1.41-1.87-5.34-1.87-5.34-2.77-2.53-4.11-3.09-3.86-2.11.25.98-1.02,1.27.81,4.64Z"/>
      </g>
      <g>
        <circle class="cls-3" cx="118.15" cy="96.44" r="6.34"/>
        <circle class="cls-3" cx="322.06" cy="322.72" r="6.34"/>
        <circle class="cls-3" cx="371.09" cy="329.12" r="6.34"/>
        <line class="cls-4" x1="118.15" y1="96.44" x2="118.15" y2="50.76"/>
        <line class="cls-4" x1="322.06" y1="322.72" x2="322.06" y2="278.4"/>
        <line class="cls-4" x1="371.09" y1="330.03" x2="371.09" y2="371.08"/>
        <text class="cls-1" transform="translate(88.56 34.32)"><tspan x="0" y="0">Medan</tspan></text>
        <text class="cls-1" transform="translate(303 265.79)"><tspan x="0" y="0">Majalengka</tspan></text>
        <circle class="cls-3" cx="291.39" cy="307.51" r="6.34"/>
        <line class="cls-4" x1="291.39" y1="351.79" x2="291.39" y2="307.47"/>
        <text class="cls-1" transform="translate(246.85 373.51)"><tspan x="0" y="0">Jakarta</tspan></text>
        <text class="cls-1" transform="translate(357.2 395.39)"><tspan x="0" y="0">Semarang</tspan></text>
      </g>
    </g>
  </g>
</svg>