<?xml version="1.0" encoding="UTF-8"?>
<svg id="Layer_2" data-name="Layer 2" xmlns="http://www.w3.org/2000/svg" viewBox="0 0 1110.55 398.43">
  <defs>
    <style>
      .cls-1 {
        font-family: Poppins-Medium, Poppins;
        font-size: 20px;
        font-weight: 500;
      }

      .cls-2 {
        fill: none;
        stroke: #231f20;
        stroke-miterlimit: 10;
        stroke-width: 2px;
      }

      .cls-3 {
        fill: #b90020;
      }

      .cls-3, .cls-4 {
        stroke-width: 0px;
      }

      .cls-4 {
        fill: #231f20;
      }
    </style>
  </defs>
  <g id="Layer_1-2" data-name="Layer 1">
    <g>
      <g>
        <path class="cls-3" d="M9.6.46c9.25,6.3,19.3,9.68,30.67,9.33,16.69-.52,26.76,9.07,33.26,23.16,2.15,4.65,5.06,8.21,9.61,10.23,15.73,6.97,27.98,17.91,37.74,31.94,2.29,3.29,5.35,6.06,8.17,8.97,2.49,2.57,4.72,5.49,8.43.89,2.37-2.93,5.26-.98,6.91,1.5,4.86,7.29,10.66,13.35,18.88,16.96,1.68.73,3.2,2.69,3.98,4.45,3.51,7.88,8.55,13.66,17.72,14.73,1.11.13,3.08,1.39,3.01,1.91-1.28,9.68,5.28,4.91,9.05,4.9,3.58,0,6.38,1.09,8.37,4.18,2.1,3.26.34,5.55-1.5,8.17-8.52,12.12-4.01,21.7,10.89,22.57,5.9.35,8.73,2.84,9.79,8.38,1.19,6.22,2.69,12.37,6.81,17.5,3.6,4.48-2.65,7.66-1.82,12.04.85-.05,1.75.18,2.21-.16,6.44-4.8,13.31-5.94,19.37-.23,6.52,6.14,12.01,13.28,8.76,23.33-.65,1.99-.88,3.91-.32,5.94,4.29,15.71.44,31.11-1.87,46.55-.83,5.56-3.18,7.62-7.5,2.23-2.13-2.65-4.04-4.34-7.25-.88-2.56,2.77-5.64,1.11-8.28-.61-2.85-1.86-5.44-3.63-6.09,1.88-.62,5.22-3.44,4.18-6.12,1.65-3.68-3.47-7.11-7.2-10.69-10.78-6.61-6.62-13.06-13.45-21.08-18.47-27.66-17.3-45.77-42.44-58.6-71.77-7.98-18.25-17.65-35.26-32.67-48.79-6.72-6.05-9.46-14.39-11.44-22.74-2.68-11.27-8.83-19.04-19.61-23.29-5.96-2.36-9.75-6.64-12.07-12.79-4.55-12.06-11.25-21.91-23.74-28.11C18.52,38.26,9.07,25.59.47,12.62c0-1.01.18-2.06-.03-3.03C-1.22,1.78,1.8-1.25,9.6.46Z"/>
        <path class="cls-3" d="M1110.55,363.53c-7.09-7.3-17.31-11.63-20.93-22.22-1.2-3.52-3.69-2-5.52-.85-6.26,3.95-13.17-1.66-19.79,1.64-2.22,1.11-2.64-3.16-1.67-5.17,2.65-5.51,3.32-10.44-1.7-15.16-2.25-2.12,1.66-6.61-2.57-8.46,3.07-6.57-2.8-9.3-5.71-13.31-.74-1.02-1.91-2.17-1.87-3.23.44-12.17-9.35-18.2-15.63-26.32-2.39-3.1-5.41-5.36-9.27-6.23-18.01-4.07-34.32-13.93-53.11-15.42-3.27-.26-6.83-2-8.38-4.78-3.49-6.27-9.11-8.2-15.43-9.97-3.51-.99-6.92-3.29-9.7-5.75-4.47-3.95-6.85-2.83-8.95,2.2-.95,2.28-2.54,4.39-4.18,6.28-1.91,2.2-4.45,3.46-7.47,2.41-3.03-1.05-4.68-3.65-4.23-6.51,1.74-11.14-5.17-15.36-13.94-18.44-1.8-.63-4.56-1.21-4.13-3.68.41-2.39,3.16-2.21,5.11-2.22,7.02-.04,13.42-1.77,19.34-5.71,3.57-2.37,7.67-2.21,11.68-.57,2.5,1.02,5.01,1.29,6.68-1.48,1.1-1.81,1.45-3.96.6-5.84-1.52-3.35-4.47-1.59-6.68-1.14-6.77,1.37-13.58,1.53-20.42,1.4-9.52-.18-17.37-3.15-21.25-12.83-2.33-5.8-8.14-5.3-12.89-6.5-7.76-1.95-8.61-3.95-4.25-10.81,5.91-9.27,30.8-17.51,40.96-13.26,7.98,3.33,15.94,6.29,24.7,7.03,5.75.49,10.72,11.19,8.14,18.66-2.78,8.05-1.5,15.39,1.28,22.9,2.66,7.18,2.71,7.24,8.54,2.08.25,7.48,5.66,11.75,9.34,17.01,3.84,5.48,8.81,5.59,13.8,1.76,5.85-4.49,11.51-9.45,14.36-16.4,2.82-6.87,7.35-10.63,14.72-11.1,4.72-.3,7.54-2.71,9.85-7.02,3.57-6.67,9.73-9.44,17.32-7.66,8.41,1.97,16.62,4.69,23.84,9.57,10.54,7.12,22.07,11.23,34.74,12,5.14.31,10,1.44,14.65,3.59v159.51Z"/>
        <path class="cls-3" d="M512.71,196.72c.51,24.7-7.85,36.38-31.5,44.2-8.13,2.69-11.66.4-11.97-7.76-.3-7.92-6.37-13.27-14.24-11.17-5.7,1.52-9.39-.26-12.75-4.02-4.05-4.53-8.44-4.77-13.63-2.17-5.88,2.94-11.86,5.72-17.94,8.24-4.38,1.81-8.24,1.49-8.58-4.55-.31-5.47-3.7-6.76-8.29-6.37-5.8.49-11.57,1.5-17.37,1.7-10.21.36-13.79-3.14-14.19-13.28-.33-8.33.36-16.7-1.39-24.98-1.05-4.95-3.15-9.01-7.47-11.83-8.31-5.46-13.61-12.75-13.92-23.06-.04-1.23-.21-2.7-.9-3.64-11.75-16.03-1.32-30.23,3.73-44.81.62-1.8,2.19-3.67,4.53-3.5,2.54.19,2.8,2.62,3.51,4.45,2.02,5.25,4.74,10.07,8.49,14.28,5.3,5.94,11.79,8.43,19.76,7.16,3.99-.64,8.08-1.44,12.06-1.17,9.23.62,17.32-1.18,24.8-7.12,5.57-4.42,12.35-5.75,19.34-2.48,12.22,5.72,23.23-1.52,34.7-3.46,2.81-.47,3.54-4.13,4.4-6.74,1.98-6.02,6.52-11.25,8.27-16.59,2.89-8.84,9.96-15.35,11.26-24.95,2.5-18.47,7.16-22.05,25.98-22.13,4.79-.02,9.58.66,14.36,1.11,6,.57,9.47,4.35,11.76,9.52,1.97,4.43,2.52,8.05-4.28,7.68-1.72-.09-3.87-.2-4.53,1.89-.64,2.04,1.23,3.06,2.5,4.27,7.84,7.47,8.22,18.69,13.71,27.35.24.38.34,1.17.11,1.47-6.37,8.17,1.5,10.53,5.84,14.27,4.6,3.97,9.31,7.82,13.89,11.81,1.93,1.68,3.94,3.65,2.45,6.5-1.53,2.91-4.31,3.21-7.26,2.56-.25-.05-.49-.13-.74-.16-4.84-.49-10.09-6.14-14.2-1.74-5.58,5.97-11.3,12.89-11.15,21.82.26,16.02-6.73,27.06-21.25,33.5-5.82,2.58-8.35,6.96-7.94,13.29.23,3.53.04,7.08.04,10.63Z"/>
        <path class="cls-3" d="M694.05,131.21c-.25,0-.53.07-.76-.02-24.49-8.79-49.78,1.58-74.45-3.12-5.54-1.06-9,1.41-11.32,6.53-3.52,7.75-7.53,15.35-1.2,23.42,4.19,5.34,9.81,9.43,12.99,15.71,1.61,3.18,4.82,2.45,7.18.43,2.48-2.12,4.67-4.61,6.9-7.01,2.47-2.65,5.17-5.13,8.9-5.36,12.43-.76,24.17-5.13,36.45-6.66,2.42-.3,4.77-.75,5.54,2.22.72,2.79-1.28,4.98-3.55,4.78-10.85-.97-15.07,7.14-20.78,13.81-4.65,5.43-10.74,9.21-18.23,9.99-1.46.15-3.33-.18-4.04,1.45-.93,2.13,1.11,3.15,2.29,4.3,5.09,4.98,9.47,10.53,13.56,16.34,1.76,2.51,3.88,5.21,3.52,8.23-1.33,11.21,5.19,18.53,12.26,25.49,3.88,3.81,2.52,5.56-1.84,6.5-6.6,1.43-13.23,1.8-16.25,10.02-1.49,4.06-9.93.85-11.49-4.72-.73-2.61-.56-5.51-.52-8.27.09-5.63-2.01-10-7.31-12.15-6.03-2.46-7.09-6.58-4.97-12.2.36-.94.58-1.94.78-2.93.68-3.43,2.38-7.52-1.51-9.64-4.14-2.27-8.98-1.85-13.09.65-3.63,2.21-3.79,6.22-2.44,9.52,3.53,8.65,2.74,17.32,1.36,26.14-1.34,8.53-2.02,17.1-.09,25.62,1.08,4.74-.4,6.78-5.33,7.64-15.34,2.69-21.14-3.39-16.98-18.52,2.36-8.59,4.89-17.08,1.62-26-1.18-3.23-2.52-5.73-6.54-6.41-10.01-1.7-15.39-9.89-9.95-17.87,7.15-10.51,10.1-21.48,11.02-33.67.32-4.29,3.06-7.98,5.58-11.5,4.35-6.08,6.47-12.26,6.42-20.3-.05-7.37,2.88-15.24,6.46-22.25.93-1.82,2.77-3.7,4.76-3.31,6.71,1.31,10.69-2.44,15.1-6.52,4.46-4.13,10.01-4.62,15.46-1.33,2.19,1.32,4.35,2.92,6.97,2.7,12.56-1.03,24.58,2.46,36.86,3.97,12.26,1.5,23.82-.77,31.61-12.07,1.27-1.84,3.08-3.35,4.78-4.86,1.65-1.47,3.59-1.94,5.57-.6,1.72,1.15,1.73,2.87,1.46,4.74-1.9,13.21-18.99,27.39-32.74,27.12Z"/>
        <path class="cls-3" d="M327.02,331.7c-8.75.91-17.21-.33-25.3-3.73-6.14-2.58-12.34-4.3-19.13-4.02-4.27.18-8.27-.95-8.61-6.39-.29-4.75-3.49-5.57-7.35-5.81-5.81-.35-11.62-.8-17.42-1.24-1.77-.13-3.89-.19-4.48-2.17-.66-2.21,1.47-2.96,2.98-3.76,4.87-2.57,8.56-6.02,10.52-11.4,1.63-4.47,5.34-5.52,9.93-4.89,6.75.94,13.58,2.11,20.22-.77.45-.2,1.19-.45,1.46-.24,9.73,7.4,23.82,5.02,32.6,14.17,4.75,4.94,9.97,7.53,16.75,7.24,7.91-.34,15.61,1.48,23.39,2.45,5.85.73,10.52-.63,13.17-6.42,2.36-5.16,5.73-6.07,10.1-2.15,2.83,2.54,6.27,3.15,9.91,3.04,8.12-.26,15.06,4.07,22.65,5.92,3.88.95,5.19,5.34,6.71,8.79,2.42,5.48,6.49,8.13,12.41,8.38,6.31.26,12.56,1.3,18.94.95,6.63-.36,10.55,2.87,10.57,9.93,0,4.06.31,7.99,2.15,11.81,1.73,3.6-.67,4.65-3.72,4.11-2.72-.48-5.4-1.37-8-2.36-18.65-7.11-38.39-5.9-57.74-7.59-13.94-1.22-27.55-3.58-40.77-8.41-10.24-3.75-20.77-6.72-31.95-5.43Z"/>
        <path class="cls-3" d="M794.29,225.05c.57-12.12,3.63-15.02,15.64-15.04,7.28-.02,14.5.1,21.83-.98,12.65-1.87,29.09,7.02,32.27,16.39.87,2.57,2.43,5.58-.14,7.76-2.62,2.23-5.29,0-7.6-1.32-3.06-1.73-5.83-3.97-8.84-5.78-4.17-2.5-8.44-4.42-13.58-2.64-3.23,1.12-6.47.06-9.6-1.05-2.88-1.02-5.79-1.98-8.71-.1-2.76,4.01-6.2,6-10.52,2.47-3.86-3.15-7.1,3.54-10.75.3Z"/>
        <path class="cls-3" d="M614.72,343.93c1,.18,3.4-.05,4.88,1,10.95,7.77,23.9,6.06,36.08,7.65,6.5.85,10.95-4.13,15.44-8.05.88-.77-1.41-4.42,2.21-2.99,2.29.9,2.25,3.29,1.1,5.2-2.4,4-5.62,7.26-10.17,8.66-14.83,4.59-29.95,5.96-45.39,4.05-4.75-.59-9.59-.52-14.37-.88-2.82-.22-5.8-.67-6.6-4-.85-3.57,1.45-5.66,4.23-7.25,3.57-2.04,7.42-3.18,12.58-3.38Z"/>
        <path class="cls-3" d="M690.28,385.24c.48-5.74,4.27-10.79,8.74-11.24,7.08-.71,10.97-5.48,16.24-8.5,2.72-1.56,5.28-4.54,8.89-2.09,3.68,2.49.91,5.46.32,8.19-2.6,12.07-15,22.71-27.4,23.67-8.32.65-5.28-6.14-6.8-10.03Z"/>
        <path class="cls-3" d="M788.09,116.03c3.55,1.94,5.92.9,8.29-2.37,2.79-3.86,6.13-7.39,9.59-10.69,2.12-2.02,5.02-2.71,7.49-.23,2.08,2.08,1.67,4.48.56,7.01-1.93,4.4-8.73,6.1-7.91,11.31.71,4.52,6.7,6.55,8.75,11.81-4.56.62-7.67-2.32-11.21-3.43-5.25-1.64-7.46.05-8.08,5.42-1.14,9.89,3.86,17.39,8.98,25.04-7.93-3.91-12.48-10.55-14.33-18.77-1.05-4.62-.97-9.27-4.07-13.47-2.23-3.01-.15-6.84.62-10.27.19-.71.65-1.16,1.35-1.37Z"/>
        <path class="cls-3" d="M569.02,358.41c-10.27-6.85-18.31,1.79-27.39,5.15-1.87.69-3.9,1.41-5.84,1.35-5.04-.17-10.77-.18-11.19-7.15-.32-5.33,5.42-9.68,11.49-9.63,4.05.04,7.15,2.16,10.34,4.21,2.61,1.67,5.9,3.61,8.22.88,2.81-3.31-1.63-4.38-3.26-6.18-1.3-1.43-2.31-2.91-1.05-4.66,1.46-2.04,3.99-2.06,5.26-.42,3.99,5.18,9.63,4.58,15.04,5.03,3.38.29,8.17-.56,7.99,4.51-.17,4.83-4.83,5.81-9.59,6.89Z"/>
        <path class="cls-3" d="M599.76,372.48c1.58-.82,3.13-.56,4.19.63,3.93,4.42,9.2,6.95,13.94,10.23,2.39,1.66,4.16,3.92,3,7.05-1.2,3.24-4.02,4.46-7.24,4.37-3.87-.11-7.5-1.46-10.42-3.96-5.47-4.67-11.44-8.08-18.61-9.42-2.66-.5-5.89-1.58-5.59-5.08.31-3.6,3.64-3.72,6.42-3.79,4.77-.12,9.55-.03,14.32-.03Z"/>
        <path class="cls-3" d="M767.83,232.47c-5.03-.89-10.51-.98-14.62-5.04-4.75-4.7-3.82-9.32,2.41-11.41,6.65-2.23,13.04-2.11,18.23,3.38,2.47,2.61,4.73,5.67,2.74,9.48-1.76,3.36-5.21,3.62-8.77,3.59Z"/>
        <path class="cls-3" d="M788.09,116.03c-.45.46-.9.91-1.36,1.37-6.32-12.89-3.21-22.64,9.35-29.73-1.25,9.76,3.26,21.31-7.99,28.36Z"/>
        <path class="cls-3" d="M487.73,341.29c2.8.55,8.17,1.05,7.75,6.47-.36,4.64-6.34,9.16-9.25,8.21-5.25-1.72-9.7-6.5-13.85-10.65-1.66-1.66.88-2.87,2.72-3.04,3.73-.35,7.47-.59,12.62-.99Z"/>
        <path class="cls-3" d="M503.73,359.45c1.42-3.05,2.91-5.3,3.41-8.1,1-5.54,5.31-6.95,10.18-6.88,2.48.04,4.86,1.63,4.22,4.23-1.16,4.66-1.32,10.49-7.61,11.74-3.14.63-6.5.69-10.2-.99Z"/>
        <path class="cls-3" d="M715.96,180.02c4.24,1.67,11.85-.13,12.16,4.77.31,4.85-7.25,1.11-10.63,3.48-.19.14-.47.16-.71.22-3.36.8-6.48.5-9-2.13-.89-.92-1.62-2.18-.74-3.36,2.23-3,5.65-2.66,8.92-2.98Z"/>
        <path class="cls-3" d="M791.6,182.78c-3.27-.28-7.11.07-7.67-4.33-.46-3.58,2.2-4.97,5.32-4.64,3.74.39,8.35,1.02,8.75,5.49.32,3.59-3.83,3.02-6.4,3.48Z"/>
        <path class="cls-3" d="M794.29,225.05c1.61-.34,2.59-1.38,3.28-2.81,1.76-3.65,4.33-4.38,6.87-1.09,3.48,4.52,7.12,3.61,11.11,1.12-1.23,6.11-6.21,5.67-10.68,6.1-2.5.6-5,1.5-7.52.08-1.02-1.14-2.04-2.27-3.06-3.41Z"/>
        <path class="cls-3" d="M849.03,188.8c-2.88-.33-7.07-.41-7.27-3.8-.24-3.98,4.13-3.64,7.01-3.76,2.65-.11,6.36-.56,6.5,3.32.13,3.58-3.21,3.97-6.24,4.23Z"/>
        <path class="cls-3" d="M808.21,76.79c2.67-.05,4.14.95,3.96,3.05-.34,4.03-2.12,7.37-6.49,8.03-2.38.36-3.71-1.51-3.5-3.83.36-3.97,3.08-6.03,6.03-7.25Z"/>
        <path class="cls-3" d="M778.75,149.96c10.37-3.7,9.27,6.94,14.28,9.35-7.25.91-11.4-2.74-14.28-9.35Z"/>
        <path class="cls-3" d="M753.58,185.69c-5.78,2.76-11.2,2.24-17.06.91,5.13-4.69,10.24-4.98,17.06-.91Z"/>
        <path class="cls-3" d="M797.35,228.46c2.49-1.31,4.99-1.93,7.52-.08-1.33,2.4-3.61,3.42-6.11,3.78-5.47.77-1.95-2.07-1.41-3.69Z"/>
      </g>
      <circle class="cls-4" cx="118.15" cy="87.84" r="6.34"/>
      <circle class="cls-4" cx="322.06" cy="314.12" r="6.34"/>
      <circle class="cls-4" cx="371.09" cy="320.52" r="6.34"/>
      <line class="cls-2" x1="118.15" y1="87.84" x2="118.15" y2="42.16"/>
      <line class="cls-2" x1="322.06" y1="314.12" x2="322.06" y2="269.8"/>
      <line class="cls-2" x1="371.09" y1="321.43" x2="371.09" y2="362.48"/>
      <text class="cls-1" transform="translate(88.56 25.72)"><tspan x="0" y="0">Medan</tspan></text>
      <text class="cls-1" transform="translate(303 257.19)"><tspan x="0" y="0">Majalengka</tspan></text>
      <circle class="cls-4" cx="291.39" cy="298.91" r="6.34"/>
      <line class="cls-2" x1="291.39" y1="343.19" x2="291.39" y2="298.87"/>
      <text class="cls-1" transform="translate(246.85 364.92)"><tspan x="0" y="0">Jakarta</tspan></text>
      <text class="cls-1" transform="translate(357.2 386.79)"><tspan x="0" y="0">Semarang</tspan></text>
    </g>
  </g>
</svg>