<?xml version="1.0" encoding="UTF-8"?>
<svg id="Layer_2" data-name="Layer 2" xmlns="http://www.w3.org/2000/svg" viewBox="0 0 112.8 112.93">
  <defs>
    <style>
      .cls-1 {
        fill: #fff;
        stroke-width: 0px;
      }

      .cls-2 {
        fill: none;
        stroke: #fff;
        stroke-miterlimit: 10;
        stroke-width: 6.39px;
      }
    </style>
  </defs>
  <g id="Layer_1-2" data-name="Layer 1">
    <g>
      <path class="cls-2" d="M3.19,49.21c.93-6.57,2.39-12.98,5.3-19.01,5.61-11.61,14.12-20.34,25.64-26.15,1.53-.77,3.11-1.45,4.59-.05,1.61,1.52.79,3.14,0,4.75-9.01,18.45-7.88,36.2,4.45,52.7,13.58,18.18,38.85,23.94,59.24,14,.64-.31,1.27-.62,1.9-.96,1.5-.81,2.98-1.1,4.34.23,1.37,1.34,1.08,2.81.31,4.33-3.09,6.1-7.07,11.53-12.15,16.13-8.84,8-19.15,12.83-31.01,14.32-.23.03-.45.15-.67.22h-12.29c-.38-.1-.75-.23-1.14-.29-19.63-3.04-33.95-13.43-43-31.09-3.17-6.18-4.62-12.86-5.51-19.68v-9.46Z"/>
      <path class="cls-1" d="M83.15,40.55c.76,3.57,1.92,6.68,4.5,9.2,2.54,2.49,5.65,3.56,9.11,4.37-3.39.9-6.56,1.96-9.07,4.45-2.55,2.52-3.73,5.66-4.51,9.25-1.4-7.89-5.93-12.4-13.91-13.63,7.84-1.36,12.5-5.73,13.87-13.64Z"/>
      <path class="cls-1" d="M56.08,12.16c1.14,6.57,4.48,10.16,10.6,11.31-5.84,1.28-9.45,4.67-10.68,10.66-1.24-6.05-4.85-9.51-11.37-10.5,7.77-2.45,9.1-3.78,11.45-11.48Z"/>
      <path class="cls-1" d="M91.93,27.23c-.85-3.79-3.16-5.93-6.94-6.83,3.65-1.07,6.24-3.03,6.92-7.12.98,3.7,3,6.17,6.94,7.02-3.69,1.01-5.98,3.2-6.92,6.92Z"/>
    </g>
  </g>
</svg>