<?xml version="1.0" encoding="UTF-8"?>
<svg id="Layer_2" data-name="Layer 2" xmlns="http://www.w3.org/2000/svg" viewBox="0 0 131.69 131.79">
  <defs>
    <style>
      .cls-1 {
        fill: #fff;
        stroke-width: 0px;
      }
    </style>
  </defs>
  <g id="Layer_1-2" data-name="Layer 1">
    <g>
      <path class="cls-1" d="M31.85,66.14c-.06-18.71,15.2-34.12,33.84-34.18,18.69-.06,34.14,15.23,34.2,33.85.06,18.66-15.26,34.13-33.86,34.19-18.68.06-34.12-15.24-34.18-33.86Z"/>
      <path class="cls-1" d="M71.25,8.26c.04,5.61-1.87,8.57-5.47,8.5-3.57-.07-5.39-3.03-5.32-8.65,0-.51,0-1.02.04-1.53C60.81,2.38,62.82-.05,65.94,0c3.11.05,5.03,2.48,5.3,6.74.03.51,0,1.02,0,1.53Z"/>
      <path class="cls-1" d="M7.57,71.47c-1.05-.17-2.59-.27-4.04-.69C1.17,70.09.01,68.27,0,65.9c-.01-2.42,1.32-4.06,3.64-4.79,2.48-.78,5.04-.68,7.57-.42,3.15.32,5.39,2.01,5.39,5.33,0,3.13-2.13,4.73-5.13,5.15-1.13.16-2.28.18-3.9.3Z"/>
      <path class="cls-1" d="M124.48,71.36c-1.74,0-2.38.04-3.01,0-3.87-.26-6.3-2.27-6.39-5.25-.09-3.11,2.45-5.3,6.51-5.49,1.64-.08,3.31-.05,4.95.15,2.97.36,5.1,1.86,5.16,5.08.06,3.42-2.13,4.95-5.27,5.38-1,.14-2.03.14-1.94.13Z"/>
      <path class="cls-1" d="M71.41,123.62c-.18,1.38-.27,2.78-.57,4.14-.56,2.56-2.25,3.99-4.85,4.03-2.77.04-4.5-1.44-5.15-4.16-.54-2.26-.48-4.55-.28-6.83.28-3.14,1.87-5.31,5.19-5.58,2.85-.24,5.06,2.19,5.44,5.72.09.88.01,1.78.01,2.67.07,0,.13.01.2.02Z"/>
      <path class="cls-1" d="M43.79,18.3c-.09,2.65-1.03,4.26-2.94,5.13-2.04.93-4.14.78-5.67-.89-2.16-2.37-3.8-5.17-4.68-8.27-.62-2.18.41-4.01,2.3-5.25,1.78-1.17,3.76-1.28,5.38.05,3.05,2.52,4.54,6.05,5.6,9.23Z"/>
      <path class="cls-1" d="M93,23.9c-3.49-.06-5.96-3.32-4.68-6.65.95-2.47,2.35-4.84,3.92-6.98,1.6-2.19,3.98-2.82,6.45-1.35,2.53,1.51,3.42,3.82,2.15,6.55-1.02,2.19-2.29,4.28-3.59,6.32-.95,1.49-2.46,2.18-4.26,2.12Z"/>
      <path class="cls-1" d="M23.79,38.24c.08,3.9-3.08,6.47-6.45,5.38-2.8-.9-5.4-2.39-7.6-4.36-1.65-1.48-2.16-3.45-1.23-5.59.84-1.92,2.38-3.36,4.41-3.11,4.18.5,7.66,2.6,10.32,5.89.44.54.45,1.43.55,1.8Z"/>
      <path class="cls-1" d="M117.93,30.42c2.72.12,4.36,1.14,5.3,3.21.89,1.97.54,3.87-.93,5.31-2.31,2.26-5.15,3.81-8.22,4.75-2.16.66-4.06-.24-5.31-2.13-1.15-1.75-1.35-3.78-.08-5.41,2.44-3.13,6.06-4.49,9.24-5.73Z"/>
      <path class="cls-1" d="M23.8,93.04c.08,1.8-.58,3.33-2.07,4.28-2.15,1.37-4.34,2.74-6.66,3.75-2.58,1.13-4.79.15-6.23-2.21-1.4-2.29-.92-4.54.99-6.24,2.2-1.96,4.81-3.45,7.62-4.32,3.22-1,6.26,1.41,6.36,4.74Z"/>
      <path class="cls-1" d="M113.58,88.07c3.16,1.08,6.72,2.53,9.2,5.62,1.43,1.78,1.18,3.88-.2,5.69-1.36,1.78-3.24,2.63-5.41,1.88-2.78-.96-5.36-2.44-7.62-4.33-1.76-1.47-2.05-3.54-1.27-5.6.79-2.1,2.47-3.18,5.3-3.25Z"/>
      <path class="cls-1" d="M43.83,113.54c-1.2,3.36-2.57,7.09-5.95,9.52-1.73,1.25-3.69.92-5.37-.32-1.67-1.23-2.62-3.01-2.01-5.02.96-3.2,2.57-6.16,4.95-8.53,1.48-1.48,3.49-1.52,5.38-.67,1.92.86,2.83,2.48,3,5.02Z"/>
      <path class="cls-1" d="M96.43,123.77c-1.78,0-3.33-.69-4.28-2.15-1.39-2.14-2.76-4.33-3.76-6.66-1.09-2.55-.28-4.87,2.18-6.24,2.41-1.34,4.86-1,6.5,1.27,1.56,2.16,2.96,4.51,3.95,6.98,1.3,3.23-1.19,6.68-4.6,6.8Z"/>
    </g>
  </g>
</svg>