<?xml version="1.0" encoding="UTF-8"?>
<svg id="Layer_2" data-name="Layer 2" xmlns="http://www.w3.org/2000/svg" viewBox="0 0 154.34 95.45">
  <defs>
    <style>
      .cls-1 {
        fill: #fff;
        stroke-width: 0px;
      }
    </style>
  </defs>
  <g id="Layer_1-2" data-name="Layer 1">
    <g>
      <path class="cls-1" d="M77.06,95.43c-23.43,0-46.87,0-70.3,0-4.85,0-7.87-4.06-6.38-8.47.9-2.66,3.1-4.19,6.22-4.19,15.23-.02,30.45-.01,45.68-.01,31.7,0,63.41,0,95.11.01,3.43,0,5.67,1.44,6.58,4.21,1.42,4.27-1.49,8.41-6.05,8.45-8.4.06-16.79.03-25.19.03-15.23,0-30.45,0-45.68,0h0Z"/>
      <path class="cls-1" d="M117.41,76.87c-1.25,0-2.51-.07-3.76.02-1.64.12-2.14-.65-2.27-2.2-1.29-16.21-15.23-29.34-31.48-30.18-17.3-.9-32.54,11.37-35.17,28.68-.56,3.69-.6,3.68-4.41,3.68-1.75,0-3.51-.06-5.26.03-1.74.09-2.49-.48-2.35-2.37.6-7.93,3.09-15.22,7.57-21.76,7.87-11.51,18.84-18.34,32.66-19.88,21.66-2.42,40.98,10.4,47.95,30.02,1.39,3.92,2.22,7.94,2.5,12.1.09,1.35-.38,1.85-1.64,1.84-1.44-.01-2.88,0-4.32,0,0,0,0,0,0,0Z"/>
      <path class="cls-1" d="M71.11,13.29c0-2.38-.04-4.76,0-7.15.06-3.33,2.25-5.87,5.21-6.12,3.59-.3,6.46,1.67,6.76,5.25.46,5.49.44,11.03,0,16.52-.27,3.27-3.14,5.35-6.32,5.16-3.16-.19-5.53-2.64-5.63-5.95-.08-2.57-.02-5.14-.02-7.71Z"/>
      <path class="cls-1" d="M28.14,19.38c-.01-2.97,1.19-4.81,3.5-5.89,2.44-1.14,4.85-.75,6.56,1.16,3.68,4.09,7.22,8.31,10.58,12.67,1.91,2.48,1.05,6.24-1.41,8.03-2.52,1.84-6.12,1.51-8.16-.87-3.25-3.8-6.43-7.67-9.63-11.52-.95-1.14-1.49-2.45-1.45-3.59Z"/>
      <path class="cls-1" d="M119.92,14.28c4.82-.09,7.9,4.91,5.39,8.88-2.94,4.66-6.3,9.06-9.91,13.22-2.05,2.36-5.36,2.53-7.83.72-2.41-1.77-3.38-5.22-1.67-7.69,3.17-4.58,6.59-8.99,10.01-13.4,1-1.29,2.54-1.79,4.02-1.73Z"/>
      <path class="cls-1" d="M152.15,55.38c-.18,2.02-1.13,3.99-3.34,4.93-4.89,2.08-9.8,4.12-14.79,5.95-3.16,1.16-6.29-.5-7.49-3.55-1.15-2.91.07-6.22,3.11-7.53,4.87-2.11,9.8-4.12,14.8-5.9,3.82-1.35,7.76,1.76,7.71,6.11Z"/>
      <path class="cls-1" d="M2.59,54.99c.02-3.81,3.38-6.75,7.06-5.82,5.15,1.31,10.26,2.84,15.31,4.5,3.21,1.05,4.69,4.32,3.74,7.42-.94,3.08-4.02,4.86-7.3,3.97-4.89-1.33-9.76-2.78-14.6-4.29-2.73-.85-4.23-3.06-4.22-5.79Z"/>
    </g>
  </g>
</svg>