<?xml version="1.0" encoding="UTF-8"?>
<svg id="Layer_2" data-name="Layer 2" xmlns="http://www.w3.org/2000/svg" viewBox="0 0 132.85 142.41">
  <defs>
    <style>
      .cls-1 {
        fill: #fff;
        stroke-width: 0px;
      }
    </style>
  </defs>
  <g id="Layer_1-2" data-name="Layer 1">
    <g>
      <path class="cls-1" d="M68.93,0c1.01,1.99,1.61,4.14,2.34,6.23.34,1,.9,1.64,1.89,2.04,1.5.6,2.96,1.31,4.44,1.98.58.26,1.05.65,1.06,1.34.01.7-.46,1.08-1.04,1.34-1.6.73-3.2,1.47-4.81,2.17-.68.3-1.12.74-1.36,1.46-.61,1.8-1.26,3.58-1.91,5.36-.24.65-.48,1.4-1.36,1.35-.78-.05-.99-.76-1.21-1.36-.62-1.7-1.23-3.39-1.8-5.11-.3-.9-.85-1.47-1.74-1.83-1.5-.61-2.96-1.32-4.44-1.98-.62-.28-1.17-.64-1.15-1.41.02-.76.58-1.11,1.19-1.39,1.48-.66,2.95-1.35,4.44-1.97.88-.36,1.39-.95,1.7-1.86.76-2.13,1.36-4.33,2.37-6.37h1.39Z"/>
      <path class="cls-1" d="M67.38,142.37c-3.31-.11-7.44.24-11.54-.17-6.94-.68-13.15-3.43-18.9-7.17-15.42-10.02-24.34-24.24-26.93-42.43-.66-4.61.87-8.27,5.28-10.01.63-.25.7-.74.8-1.32.92-5.01,1.39-10.08,2.19-15.1.18-1.09.47-2.18.86-3.21,1.39-3.75,4.91-5.86,8.89-5.45,5.27.54,9.67,2.7,12.99,6.89.49.62.95.88,1.77.61,1.25-.41,2.56-.51,3.83-.07.99.34,1.3-.12,1.57-.95.79-2.47,1.55-4.95,2.67-7.3,1.87-3.92,4.71-5.68,8.69-5.37,1.54.12,2.99.61,4.39,1.24,4.91,2.22,8.2,5.9,9.97,10.98.2.56.15,1.48,1.11,1.27.9-.2,2.02.18,2.51-1.22.88-2.53,1.84-5.04,3.15-7.4,2.41-4.34,6.22-5.85,10.91-4.24,4.38,1.51,7.72,4.31,9.98,8.37.63,1.14,1.15,2.32,1.5,3.58.21.74.57,1.11,1.39.94,2.85-.57,5.23.46,7.19,2.41,3.77,3.76,5.51,8.37,5.31,13.69-.03.82.07,1.15.97,1.2,6.43.36,9.53,4.22,8.54,10.68-3.27,21.26-14.56,36.63-33.94,46-4.9,2.37-10.1,3.57-15.57,3.52-2.92-.03-5.83,0-9.56,0ZM68.23,88.16c-16.34,0-32.69,0-49.03,0-2.84,0-3.59.82-3.21,3.6,2.25,16.25,10.12,29,23.87,38,5.93,3.88,12.31,6.62,19.58,6.61,6.02,0,12.04.01,18.06-.01,2.79-.01,5.54-.44,8.19-1.33,8.92-2.97,16.36-8.16,22.47-15.25,6.97-8.08,11.01-17.48,12.34-28.05.36-2.84-.36-3.57-3.24-3.57-16.34,0-32.69,0-49.03,0ZM58.95,57.34c-1.22-.08-2.01.52-2.79,2.27-1.34,3.01-2.12,6.22-3.32,9.28-.2.5-.06.89.2,1.3,1.38,2.12,2.29,4.43,2.68,6.94.12.74.27,1.1,1.09.45,3.36-2.69,6.78-5.3,10.17-7.96,1.85-1.45,1.89-1.65,1.25-3.87-1.24-4.29-5.52-8.15-9.29-8.4ZM88.29,57.36c-1.05,0-1.62.65-2.1,1.42-1.54,2.51-2.37,5.32-3.47,8.02-.23.56.06.96.41,1.37,1.87,2.12,3.16,4.56,3.86,7.3.24.92.48,1.04,1.25.46,2.97-2.21,5.9-4.47,8.76-6.83.62-.51.82-1.04.68-1.81-.52-2.88-1.8-5.34-4.01-7.27-1.56-1.37-3.35-2.3-5.39-2.65ZM29.24,81.92c.5.15.62.22.75.22,6.24,0,12.48,0,18.72.02.91,0,1.21-.45,1.24-1.28.09-2.61-.45-5.04-1.88-7.26-2.18-3.38-3.35-3.66-6.53-1.2-3.8,2.94-7.48,6.04-11.39,8.84-.22.16-.45.32-.9.65ZM60.72,82.16c6.67,0,12.91-.04,19.15.03,1.34.01,1.73-.58,1.72-1.71-.02-3.06-.9-5.84-2.88-8.2-1.48-1.76-2.46-1.89-4.44-.64-1.73,1.08-3.22,2.48-4.82,3.74-2.8,2.19-5.61,4.36-8.73,6.78ZM90.46,81.96c.09.07.16.17.23.17,6.39.01,12.78.01,19.17.03.74,0,.93-.39.98-1.04.21-2.97-.47-5.69-2.22-8.13-1.81-2.51-3.08-2.82-5.54-.97-4.18,3.14-8.27,6.4-12.39,9.62-.1.08-.15.21-.22.32ZM22.48,80.18c1.06-1.1,2.09-2.16,3.25-3.07,3.31-2.59,6.75-5.02,9.95-7.75.52-.45,1.01-.76.33-1.53-2.01-2.27-4.46-3.74-7.49-4.1-2.97-.36-3.71.19-4.25,3.14-.8,4.4-1.01,8.88-1.81,13.32Z"/>
      <path class="cls-1" d="M10.47,27.17c.67.05.93.54,1.12,1.08.66,1.83,1.35,3.64,1.96,5.49.27.82.75,1.32,1.54,1.65,1.53.64,3.04,1.35,4.56,2.04.62.28,1.16.65,1.18,1.4.01.76-.54,1.13-1.16,1.41-1.35.61-2.67,1.29-4.06,1.8-1.25.46-1.94,1.25-2.3,2.52-.48,1.64-1.12,3.23-1.71,4.84-.21.58-.5,1.15-1.23,1.12-.65-.02-.94-.55-1.13-1.08-.62-1.69-1.29-3.37-1.81-5.1-.36-1.18-1.06-1.86-2.18-2.29-1.29-.5-2.54-1.11-3.8-1.68-.68-.31-1.42-.59-1.45-1.5-.03-.93.71-1.21,1.39-1.52,1.39-.63,2.76-1.31,4.17-1.88.94-.38,1.48-1.01,1.8-1.95.57-1.71,1.19-3.4,1.8-5.1.22-.62.48-1.23,1.31-1.23Z"/>
      <path class="cls-1" d="M125.16,56.11c-.56-.06-.8-.45-.97-.89-.36-.95-.8-1.89-1.02-2.87-.34-1.53-1.25-2.38-2.69-2.85-.79-.25-1.52-.68-2.27-1.03-.44-.2-.81-.48-.83-1.01-.02-.61.42-.88.9-1.1.29-.13.58-.31.89-.39,2.6-.67,3.98-2.39,4.56-4.96.18-.81.19-2.13,1.35-2.16,1.19-.03,1,1.36,1.45,2.1.02.04.04.09.05.13.43,2.67,2.05,4.21,4.59,4.92.22.06.42.18.63.29.51.25,1.04.51,1.05,1.17.02.67-.52.94-1.03,1.17-.88.41-1.75.87-2.66,1.18-1.08.37-1.64,1.09-1.94,2.14-.32,1.11-.75,2.18-1.14,3.27-.16.45-.39.84-.92.91Z"/>
      <path class="cls-1" d="M105.64,32.42c0,2.88-2.42,5.35-5.28,5.37-2.84.02-5.35-2.47-5.34-5.31,0-2.83,2.53-5.33,5.35-5.3,2.79.03,5.26,2.48,5.27,5.24Z"/>
      <path class="cls-1" d="M45.8,28.73c-.03,1.25-1.05,2.21-2.35,2.22-1.33,0-2.38-1.05-2.34-2.36.04-1.23,1.09-2.24,2.34-2.25,1.27,0,2.38,1.11,2.35,2.39Z"/>
      <path class="cls-1" d="M43.38,100.63c-1.34,0-2.68.04-4.02,0-1.99-.07-3.23-1.17-3.3-2.85-.08-1.84.96-3.03,3.07-3.18,2.91-.21,5.83-.21,8.73,0,1.95.14,3.11,1.42,3.07,3.09-.04,1.68-1.4,2.87-3.39,2.96-.09,0-.19,0-.28,0-1.3,0-2.59,0-3.89,0,0,0,0,0,0,0Z"/>
      <path class="cls-1" d="M28.21,100.64c-2.46-.02-3.88-1.2-3.82-3.19.06-1.87,1.53-2.98,3.93-2.94,2.43.03,3.97,1.26,3.94,3.13-.03,1.88-1.57,3.01-4.05,3Z"/>
    </g>
  </g>
</svg>